G04 #@! TF.GenerationSoftware,KiCad,Pcbnew,(6.0.0)*
G04 #@! TF.CreationDate,2022-10-04T00:24:46+02:00*
G04 #@! TF.ProjectId,Input_filter,496e7075-745f-4666-996c-7465722e6b69,rev?*
G04 #@! TF.SameCoordinates,Original*
G04 #@! TF.FileFunction,Copper,L2,Bot*
G04 #@! TF.FilePolarity,Positive*
%FSLAX46Y46*%
G04 Gerber Fmt 4.6, Leading zero omitted, Abs format (unit mm)*
G04 Created by KiCad (PCBNEW (6.0.0)) date 2022-10-04 00:24:46*
%MOMM*%
%LPD*%
G01*
G04 APERTURE LIST*
G04 #@! TA.AperFunction,ComponentPad*
%ADD10R,2.000000X2.000000*%
G04 #@! TD*
G04 #@! TA.AperFunction,ComponentPad*
%ADD11O,2.000000X2.000000*%
G04 #@! TD*
G04 #@! TA.AperFunction,ComponentPad*
%ADD12C,2.400000*%
G04 #@! TD*
G04 #@! TA.AperFunction,ComponentPad*
%ADD13R,2.400000X2.400000*%
G04 #@! TD*
G04 #@! TA.AperFunction,ComponentPad*
%ADD14C,2.200000*%
G04 #@! TD*
G04 #@! TA.AperFunction,ComponentPad*
%ADD15R,2.200000X2.200000*%
G04 #@! TD*
G04 #@! TA.AperFunction,ComponentPad*
%ADD16R,2.800000X2.800000*%
G04 #@! TD*
G04 #@! TA.AperFunction,ComponentPad*
%ADD17C,2.800000*%
G04 #@! TD*
G04 #@! TA.AperFunction,Conductor*
%ADD18C,5.000000*%
G04 #@! TD*
G04 #@! TA.AperFunction,Conductor*
%ADD19C,2.000000*%
G04 #@! TD*
G04 #@! TA.AperFunction,Conductor*
%ADD20C,1.500000*%
G04 #@! TD*
G04 APERTURE END LIST*
D10*
X118150000Y-112435000D03*
D11*
X123150000Y-117435000D03*
X118150000Y-117435000D03*
X123150000Y-112435000D03*
D12*
X144780000Y-133865000D03*
D13*
X144780000Y-126365000D03*
D14*
X160020000Y-114935000D03*
D15*
X160020000Y-117475000D03*
D12*
X138430000Y-115450000D03*
D13*
X138430000Y-107950000D03*
X182880000Y-126365000D03*
D12*
X182880000Y-133865000D03*
X163830000Y-133865000D03*
D13*
X163830000Y-126365000D03*
X125730000Y-126365000D03*
D12*
X125730000Y-133865000D03*
D13*
X149860000Y-91440000D03*
D12*
X149860000Y-98940000D03*
D13*
X127000000Y-91440000D03*
D12*
X127000000Y-98940000D03*
X172720000Y-98940000D03*
D13*
X172720000Y-91440000D03*
X184150000Y-83820000D03*
D12*
X184150000Y-76320000D03*
D13*
X161290000Y-83820000D03*
D12*
X161290000Y-76320000D03*
X138430000Y-76320000D03*
D13*
X138430000Y-83820000D03*
X115570000Y-83820000D03*
D12*
X115570000Y-76320000D03*
D16*
X111760000Y-121920000D03*
D17*
X111760000Y-127000000D03*
X111760000Y-132080000D03*
X111760000Y-137160000D03*
D16*
X112722500Y-92087500D03*
D17*
X112722500Y-97167500D03*
X112722500Y-102247500D03*
X112722500Y-107327500D03*
D15*
X160020000Y-107950000D03*
D14*
X160020000Y-105410000D03*
X105410000Y-116205000D03*
D15*
X105410000Y-113665000D03*
D14*
X195580000Y-123190000D03*
D15*
X195580000Y-125730000D03*
X105410000Y-127635000D03*
D14*
X105410000Y-130175000D03*
D15*
X187325000Y-95885000D03*
D14*
X187325000Y-93345000D03*
D15*
X106045000Y-96520000D03*
D14*
X106045000Y-99060000D03*
D18*
X163830000Y-126365000D02*
X182880000Y-126365000D01*
X186055000Y-123190000D02*
X190500000Y-123190000D01*
X182880000Y-126365000D02*
X186055000Y-123190000D01*
D19*
X190500000Y-123190000D02*
X195580000Y-123190000D01*
D18*
X144780000Y-126365000D02*
X163830000Y-126365000D01*
X125730000Y-126365000D02*
X144780000Y-126365000D01*
X111760000Y-121920000D02*
X121285000Y-121920000D01*
X121285000Y-121920000D02*
X125730000Y-126365000D01*
D19*
X107315000Y-132080000D02*
X105410000Y-130175000D01*
X111760000Y-132080000D02*
X107315000Y-132080000D01*
X106045000Y-127000000D02*
X105410000Y-127635000D01*
X111760000Y-127000000D02*
X106045000Y-127000000D01*
X187325000Y-88900000D02*
X187325000Y-93345000D01*
D18*
X187325000Y-86995000D02*
X187325000Y-88900000D01*
X184150000Y-83820000D02*
X187325000Y-86995000D01*
D19*
X112075000Y-96520000D02*
X112722500Y-97167500D01*
X106045000Y-96520000D02*
X112075000Y-96520000D01*
X112722500Y-102247500D02*
X109232500Y-102247500D01*
X109232500Y-102247500D02*
X106045000Y-99060000D01*
D18*
X176530000Y-91440000D02*
X184150000Y-83820000D01*
X172720000Y-91440000D02*
X176530000Y-91440000D01*
X165100000Y-83820000D02*
X172720000Y-91440000D01*
X161290000Y-83820000D02*
X165100000Y-83820000D01*
X153670000Y-91440000D02*
X161290000Y-83820000D01*
X149860000Y-91440000D02*
X153670000Y-91440000D01*
X142240000Y-83820000D02*
X149860000Y-91440000D01*
X138430000Y-83820000D02*
X142240000Y-83820000D01*
X127000000Y-91440000D02*
X130810000Y-91440000D01*
X130810000Y-91440000D02*
X138430000Y-83820000D01*
X119380000Y-83820000D02*
X127000000Y-91440000D01*
X115570000Y-83820000D02*
X119380000Y-83820000D01*
X112722500Y-86667500D02*
X115570000Y-83820000D01*
X112722500Y-92087500D02*
X112722500Y-86667500D01*
D19*
X156845000Y-105410000D02*
X160020000Y-105410000D01*
X154305000Y-107950000D02*
X156845000Y-105410000D01*
X153670000Y-108585000D02*
X160020000Y-114935000D01*
D18*
X138430000Y-107950000D02*
X153670000Y-107950000D01*
X122635000Y-107950000D02*
X138430000Y-107950000D01*
D19*
X118150000Y-112435000D02*
X122635000Y-107950000D01*
D20*
X106640000Y-117435000D02*
X118150000Y-117435000D01*
X105410000Y-116205000D02*
X106640000Y-117435000D01*
X120650000Y-114935000D02*
X123150000Y-112435000D01*
X115570000Y-114935000D02*
X120650000Y-114935000D01*
X114300000Y-113665000D02*
X115570000Y-114935000D01*
X105410000Y-113665000D02*
X114300000Y-113665000D01*
G04 #@! TA.AperFunction,Conductor*
G36*
X194305642Y-71020213D02*
G01*
X194434837Y-71079214D01*
X194542176Y-71172224D01*
X194618963Y-71291708D01*
X194658978Y-71427985D01*
X194658978Y-71570015D01*
X194618963Y-71706292D01*
X194542176Y-71825776D01*
X194475693Y-71889520D01*
X194256619Y-72063779D01*
X194033648Y-72290676D01*
X193839991Y-72543055D01*
X193678534Y-72817154D01*
X193551685Y-73108886D01*
X193461335Y-73413903D01*
X193458819Y-73428936D01*
X193458818Y-73428942D01*
X193426435Y-73622461D01*
X193408831Y-73727657D01*
X193394955Y-74045471D01*
X193419914Y-74362607D01*
X193422952Y-74377539D01*
X193468359Y-74600722D01*
X193483336Y-74674338D01*
X193584276Y-74976016D01*
X193721229Y-75263143D01*
X193729417Y-75275996D01*
X193729420Y-75276001D01*
X193861696Y-75483632D01*
X193892153Y-75531440D01*
X194094500Y-75776907D01*
X194325254Y-75995884D01*
X194580975Y-76185108D01*
X194857849Y-76341756D01*
X195151751Y-76463494D01*
X195458298Y-76548507D01*
X195772921Y-76595528D01*
X195817330Y-76597467D01*
X195881371Y-76600263D01*
X195881380Y-76600263D01*
X195886804Y-76600500D01*
X196080799Y-76600500D01*
X196088396Y-76600035D01*
X196088407Y-76600035D01*
X196193676Y-76593596D01*
X196317524Y-76586021D01*
X196332521Y-76583242D01*
X196332525Y-76583241D01*
X196615315Y-76530829D01*
X196615319Y-76530828D01*
X196630313Y-76528049D01*
X196835057Y-76463494D01*
X196919166Y-76436975D01*
X196919170Y-76436973D01*
X196933707Y-76432390D01*
X197223181Y-76300469D01*
X197399179Y-76192617D01*
X197481418Y-76142221D01*
X197481422Y-76142218D01*
X197494420Y-76134253D01*
X197743381Y-75936221D01*
X197966352Y-75709324D01*
X198074873Y-75567897D01*
X198105117Y-75528482D01*
X198206735Y-75429254D01*
X198332193Y-75362674D01*
X198471327Y-75334137D01*
X198612865Y-75345954D01*
X198745340Y-75397169D01*
X198858020Y-75483632D01*
X198941777Y-75598337D01*
X198989824Y-75731994D01*
X199000000Y-75832254D01*
X199000000Y-102501000D01*
X198979787Y-102641585D01*
X198920786Y-102770780D01*
X198827776Y-102878119D01*
X198708292Y-102954906D01*
X198572015Y-102994921D01*
X198501000Y-103000000D01*
X157414214Y-103000000D01*
X157402021Y-103001201D01*
X157402019Y-103001201D01*
X157243517Y-103016812D01*
X157243513Y-103016813D01*
X157219123Y-103019215D01*
X157031530Y-103076120D01*
X157009911Y-103087676D01*
X157009910Y-103087676D01*
X156880262Y-103156974D01*
X156880259Y-103156976D01*
X156858643Y-103168530D01*
X156707107Y-103292893D01*
X156687923Y-103312077D01*
X156574222Y-103397193D01*
X156462962Y-103441565D01*
X156428534Y-103450694D01*
X156389201Y-103461122D01*
X156366354Y-103466607D01*
X156285453Y-103484025D01*
X156268905Y-103490130D01*
X156268898Y-103490132D01*
X156263145Y-103492254D01*
X156218316Y-103506432D01*
X156195347Y-103512522D01*
X156120584Y-103544180D01*
X156119160Y-103544783D01*
X156097299Y-103553438D01*
X156036223Y-103575970D01*
X156036215Y-103575974D01*
X156019663Y-103582080D01*
X156004131Y-103590461D01*
X155998743Y-103593368D01*
X155956359Y-103613721D01*
X155934472Y-103622989D01*
X155863560Y-103665681D01*
X155843194Y-103677297D01*
X155814723Y-103692659D01*
X155785868Y-103708228D01*
X155785863Y-103708231D01*
X155770340Y-103716607D01*
X155756149Y-103727088D01*
X155756139Y-103727095D01*
X155751201Y-103730742D01*
X155712115Y-103756859D01*
X155706877Y-103760012D01*
X155706874Y-103760014D01*
X155691764Y-103769111D01*
X155627604Y-103821345D01*
X155609046Y-103835740D01*
X155542460Y-103884922D01*
X155523765Y-103903326D01*
X155511474Y-103915425D01*
X155507861Y-103918832D01*
X155503413Y-103922453D01*
X155446606Y-103979260D01*
X155443826Y-103982019D01*
X155340570Y-104083666D01*
X155336361Y-104089181D01*
X155331367Y-104094499D01*
X155002914Y-104422952D01*
X154889213Y-104508068D01*
X154756138Y-104557702D01*
X154614470Y-104567835D01*
X154544200Y-104557746D01*
X154230458Y-104489625D01*
X153859572Y-104449662D01*
X153853586Y-104449500D01*
X122541761Y-104449500D01*
X122535141Y-104449853D01*
X122535131Y-104449853D01*
X122275758Y-104463673D01*
X122275752Y-104463674D01*
X122262495Y-104464380D01*
X122249388Y-104466491D01*
X122249380Y-104466492D01*
X121907326Y-104521587D01*
X121907324Y-104521587D01*
X121894208Y-104523700D01*
X121881392Y-104527194D01*
X121728874Y-104568775D01*
X121534309Y-104621819D01*
X121521933Y-104626657D01*
X121521929Y-104626658D01*
X121305805Y-104711139D01*
X121186876Y-104757628D01*
X121175092Y-104763749D01*
X121175086Y-104763752D01*
X121028202Y-104840052D01*
X120855841Y-104929587D01*
X120844778Y-104936923D01*
X120844770Y-104936928D01*
X120556030Y-105128403D01*
X120556025Y-105128407D01*
X120544953Y-105135749D01*
X120257733Y-105373780D01*
X119997434Y-105640985D01*
X119767002Y-105934337D01*
X119569049Y-106250515D01*
X119563240Y-106262452D01*
X119434632Y-106526721D01*
X119354938Y-106644287D01*
X119338789Y-106661211D01*
X115310226Y-110689774D01*
X115273955Y-110722649D01*
X115179346Y-110800293D01*
X115098016Y-110854636D01*
X115011814Y-110900712D01*
X114921436Y-110938147D01*
X114827904Y-110966519D01*
X114731968Y-110985602D01*
X114678537Y-110990865D01*
X114610182Y-110997597D01*
X114561273Y-111000000D01*
X101499000Y-111000000D01*
X101358415Y-110979787D01*
X101229220Y-110920786D01*
X101121881Y-110827776D01*
X101045094Y-110708292D01*
X101005079Y-110572015D01*
X101000000Y-110501000D01*
X101000000Y-99498242D01*
X101020213Y-99357657D01*
X101079214Y-99228462D01*
X101172224Y-99121123D01*
X101250075Y-99071091D01*
X101747925Y-99071091D01*
X101825776Y-99121123D01*
X101918786Y-99228462D01*
X101979147Y-99362373D01*
X102047017Y-99602219D01*
X102152462Y-99828348D01*
X102292706Y-100034710D01*
X102464138Y-100215994D01*
X102662349Y-100367538D01*
X102680008Y-100377007D01*
X102680010Y-100377008D01*
X102772294Y-100426490D01*
X102882239Y-100485443D01*
X103006386Y-100528190D01*
X103099198Y-100560148D01*
X103099202Y-100560149D01*
X103118152Y-100566674D01*
X103137898Y-100570085D01*
X103137903Y-100570086D01*
X103257555Y-100590753D01*
X103364017Y-100609142D01*
X103379679Y-100609853D01*
X103379686Y-100609854D01*
X103388274Y-100610244D01*
X103388295Y-100610244D01*
X103393922Y-100610500D01*
X103567691Y-100610500D01*
X103753702Y-100595534D01*
X103996006Y-100536018D01*
X104073004Y-100503334D01*
X104210309Y-100467011D01*
X104352288Y-100470842D01*
X104487436Y-100514518D01*
X104588055Y-100579850D01*
X104807472Y-100763311D01*
X104821870Y-100772343D01*
X104821873Y-100772345D01*
X105050088Y-100915503D01*
X105048716Y-100917689D01*
X105145247Y-100989382D01*
X107794027Y-103638161D01*
X107802243Y-103646572D01*
X107882699Y-103730912D01*
X107896551Y-103741832D01*
X107947685Y-103782143D01*
X107965797Y-103797127D01*
X108014961Y-103839789D01*
X108014970Y-103839796D01*
X108028292Y-103851356D01*
X108048268Y-103864254D01*
X108086510Y-103891583D01*
X108105180Y-103906301D01*
X108120438Y-103915163D01*
X108120443Y-103915167D01*
X108176717Y-103947854D01*
X108196759Y-103960136D01*
X108251459Y-103995455D01*
X108251472Y-103995462D01*
X108266290Y-104005030D01*
X108287883Y-104014984D01*
X108329611Y-104036660D01*
X108332113Y-104038114D01*
X108334895Y-104039730D01*
X108334899Y-104039732D01*
X108350154Y-104048593D01*
X108426836Y-104079652D01*
X108448399Y-104088984D01*
X108507531Y-104116244D01*
X108507540Y-104116248D01*
X108523567Y-104123636D01*
X108546353Y-104130450D01*
X108590705Y-104146026D01*
X108596377Y-104148324D01*
X108596384Y-104148326D01*
X108612732Y-104154948D01*
X108629854Y-104159201D01*
X108629860Y-104159203D01*
X108693026Y-104174893D01*
X108715710Y-104181099D01*
X108794990Y-104204809D01*
X108812440Y-104207433D01*
X108812442Y-104207433D01*
X108818512Y-104208346D01*
X108864602Y-104217513D01*
X108887677Y-104223245D01*
X108939831Y-104228589D01*
X108969970Y-104231677D01*
X108993291Y-104234623D01*
X109057692Y-104244305D01*
X109057698Y-104244305D01*
X109075142Y-104246928D01*
X109092780Y-104247067D01*
X109092784Y-104247067D01*
X109118625Y-104247270D01*
X109123589Y-104247416D01*
X109129290Y-104248000D01*
X109209622Y-104248000D01*
X109213541Y-104248015D01*
X109340801Y-104249015D01*
X109340808Y-104249015D01*
X109358433Y-104249153D01*
X109365310Y-104248229D01*
X109372602Y-104248000D01*
X111250440Y-104248000D01*
X111391025Y-104268213D01*
X111490831Y-104309722D01*
X111698396Y-104423832D01*
X111712967Y-104429601D01*
X111712969Y-104429602D01*
X111766348Y-104450736D01*
X111979238Y-104535025D01*
X112107026Y-104567835D01*
X112256607Y-104606241D01*
X112256613Y-104606242D01*
X112271802Y-104610142D01*
X112287361Y-104612108D01*
X112287363Y-104612108D01*
X112461089Y-104634055D01*
X112571473Y-104648000D01*
X112873527Y-104648000D01*
X112983911Y-104634055D01*
X113157637Y-104612108D01*
X113157639Y-104612108D01*
X113173198Y-104610142D01*
X113188387Y-104606242D01*
X113188393Y-104606241D01*
X113337974Y-104567835D01*
X113465762Y-104535025D01*
X113678652Y-104450736D01*
X113732031Y-104429602D01*
X113732033Y-104429601D01*
X113746604Y-104423832D01*
X113760345Y-104416278D01*
X113997552Y-104285872D01*
X113997560Y-104285867D01*
X114011295Y-104278316D01*
X114133479Y-104189545D01*
X114242976Y-104109991D01*
X114242977Y-104109990D01*
X114255662Y-104100774D01*
X114267084Y-104090048D01*
X114267090Y-104090043D01*
X114464424Y-103904733D01*
X114464425Y-103904731D01*
X114475849Y-103894004D01*
X114555993Y-103797127D01*
X114658391Y-103673349D01*
X114658393Y-103673346D01*
X114668385Y-103661268D01*
X114677712Y-103646572D01*
X114807812Y-103441566D01*
X114830233Y-103406236D01*
X114958841Y-103132930D01*
X115052181Y-102845660D01*
X115108780Y-102548957D01*
X115127746Y-102247500D01*
X115108780Y-101946043D01*
X115052181Y-101649340D01*
X114958841Y-101362070D01*
X114830233Y-101088764D01*
X114668385Y-100833732D01*
X114475849Y-100600996D01*
X114453065Y-100579600D01*
X114267090Y-100404957D01*
X114267084Y-100404952D01*
X114255662Y-100394226D01*
X114011295Y-100216684D01*
X113880493Y-100144775D01*
X113767038Y-100059336D01*
X113682248Y-99945392D01*
X113632994Y-99812175D01*
X113623267Y-99670479D01*
X113653855Y-99531781D01*
X113722279Y-99407319D01*
X113822996Y-99307176D01*
X113880491Y-99270226D01*
X114011295Y-99198316D01*
X114189626Y-99068752D01*
X114242976Y-99029991D01*
X114242977Y-99029990D01*
X114255662Y-99020774D01*
X114267084Y-99010048D01*
X114267090Y-99010043D01*
X114464424Y-98824733D01*
X114464425Y-98824731D01*
X114475849Y-98814004D01*
X114568982Y-98701426D01*
X114658391Y-98593349D01*
X114658393Y-98593346D01*
X114668385Y-98581268D01*
X114706950Y-98520500D01*
X114779240Y-98406588D01*
X114830233Y-98326236D01*
X114958841Y-98052930D01*
X115052181Y-97765660D01*
X115057141Y-97739662D01*
X115105841Y-97484363D01*
X115108780Y-97468957D01*
X115110936Y-97434697D01*
X115126761Y-97183156D01*
X115127746Y-97167500D01*
X115121122Y-97062219D01*
X115109765Y-96881696D01*
X115109765Y-96881693D01*
X115108780Y-96866043D01*
X115074905Y-96688462D01*
X115055122Y-96584755D01*
X115055120Y-96584748D01*
X115052181Y-96569340D01*
X114958841Y-96282070D01*
X114830233Y-96008764D01*
X114748132Y-95879394D01*
X114676787Y-95766971D01*
X114676785Y-95766968D01*
X114668385Y-95753732D01*
X114658394Y-95741655D01*
X114658386Y-95741644D01*
X114617369Y-95692063D01*
X114543332Y-95570856D01*
X114506441Y-95433701D01*
X114509687Y-95291708D01*
X114552805Y-95156380D01*
X114632302Y-95038683D01*
X114715286Y-94965482D01*
X114874634Y-94853699D01*
X114874639Y-94853695D01*
X114885500Y-94846076D01*
X114895491Y-94837345D01*
X114895496Y-94837341D01*
X115156385Y-94609351D01*
X115156392Y-94609345D01*
X115166390Y-94600607D01*
X115419606Y-94326680D01*
X115642279Y-94027396D01*
X115666942Y-93985611D01*
X115825139Y-93717579D01*
X115831888Y-93706145D01*
X115876113Y-93608878D01*
X115980783Y-93378668D01*
X115980785Y-93378662D01*
X115986286Y-93366564D01*
X115995123Y-93339923D01*
X116049703Y-93175368D01*
X116103725Y-93012499D01*
X116143721Y-92828292D01*
X116180056Y-92660943D01*
X116180057Y-92660937D01*
X116182875Y-92647958D01*
X116222838Y-92277072D01*
X116223000Y-92271086D01*
X116223000Y-88324146D01*
X116243213Y-88183561D01*
X116302214Y-88054366D01*
X116369154Y-87971300D01*
X116873800Y-87466654D01*
X116987501Y-87381538D01*
X117120576Y-87331904D01*
X117226646Y-87320500D01*
X117723354Y-87320500D01*
X117863939Y-87340713D01*
X117993134Y-87399714D01*
X118076200Y-87466654D01*
X124429695Y-93820150D01*
X124452589Y-93844636D01*
X124486893Y-93883890D01*
X124566237Y-93957235D01*
X124580361Y-93970816D01*
X124590702Y-93981157D01*
X124595650Y-93985605D01*
X124595657Y-93985611D01*
X124639241Y-94024785D01*
X124644276Y-94029373D01*
X124760820Y-94137106D01*
X124771476Y-94145034D01*
X124780034Y-94152139D01*
X124788802Y-94159214D01*
X124798695Y-94168106D01*
X124927314Y-94261040D01*
X124932796Y-94265059D01*
X124957122Y-94283158D01*
X125049449Y-94351852D01*
X125049456Y-94351857D01*
X125060104Y-94359779D01*
X125071537Y-94366527D01*
X125080890Y-94372741D01*
X125090298Y-94378804D01*
X125101059Y-94386579D01*
X125230242Y-94460413D01*
X125238780Y-94465293D01*
X125244798Y-94468789D01*
X125381355Y-94549388D01*
X125393452Y-94554888D01*
X125403446Y-94560091D01*
X125413396Y-94565095D01*
X125424926Y-94571685D01*
X125549521Y-94626248D01*
X125570182Y-94635296D01*
X125576532Y-94638129D01*
X125720936Y-94703786D01*
X125733541Y-94707967D01*
X125743919Y-94712034D01*
X125754458Y-94715995D01*
X125766630Y-94721326D01*
X125884156Y-94758495D01*
X125917823Y-94769142D01*
X125924452Y-94771290D01*
X126015686Y-94801551D01*
X126075001Y-94821225D01*
X126087985Y-94824044D01*
X126098692Y-94826973D01*
X126109622Y-94829800D01*
X126122301Y-94833810D01*
X126135330Y-94836449D01*
X126135334Y-94836450D01*
X126182860Y-94846076D01*
X126277768Y-94865299D01*
X126284470Y-94866706D01*
X126439542Y-94900375D01*
X126452760Y-94901799D01*
X126463775Y-94903583D01*
X126474885Y-94905224D01*
X126487910Y-94907862D01*
X126501140Y-94909101D01*
X126645814Y-94922650D01*
X126652741Y-94923348D01*
X126800454Y-94939264D01*
X126800471Y-94939265D01*
X126810428Y-94940338D01*
X126816414Y-94940500D01*
X126819447Y-94940500D01*
X126832804Y-94941207D01*
X126832817Y-94940872D01*
X126846089Y-94941405D01*
X126859319Y-94942644D01*
X127019810Y-94940543D01*
X127026341Y-94940500D01*
X130675541Y-94940500D01*
X130709045Y-94941626D01*
X130747808Y-94944235D01*
X130747817Y-94944235D01*
X130761056Y-94945126D01*
X130774319Y-94944605D01*
X130774327Y-94944605D01*
X130868999Y-94940885D01*
X130888589Y-94940500D01*
X130903239Y-94940500D01*
X130968419Y-94937027D01*
X130975366Y-94936705D01*
X131003148Y-94935614D01*
X131120523Y-94931003D01*
X131120528Y-94931003D01*
X131133803Y-94930481D01*
X131146955Y-94928551D01*
X131158185Y-94927509D01*
X131169247Y-94926327D01*
X131182505Y-94925620D01*
X131339179Y-94900385D01*
X131345938Y-94899345D01*
X131489729Y-94878240D01*
X131489737Y-94878238D01*
X131502882Y-94876309D01*
X131515751Y-94872993D01*
X131526781Y-94870769D01*
X131537684Y-94868412D01*
X131550792Y-94866300D01*
X131563608Y-94862806D01*
X131703793Y-94824588D01*
X131710525Y-94822803D01*
X131851233Y-94786544D01*
X131851246Y-94786540D01*
X131864114Y-94783224D01*
X131876570Y-94778554D01*
X131887343Y-94775157D01*
X131897871Y-94771676D01*
X131910691Y-94768181D01*
X131923049Y-94763350D01*
X131923062Y-94763346D01*
X132058486Y-94710409D01*
X132064996Y-94707917D01*
X132200975Y-94656942D01*
X132200982Y-94656939D01*
X132213410Y-94652280D01*
X132225276Y-94646325D01*
X132235486Y-94641864D01*
X132245741Y-94637212D01*
X132258124Y-94632372D01*
X132398949Y-94559219D01*
X132404999Y-94556131D01*
X132546814Y-94484960D01*
X132557992Y-94477770D01*
X132567685Y-94472241D01*
X132577364Y-94466540D01*
X132589159Y-94460413D01*
X132633912Y-94430736D01*
X132721297Y-94372787D01*
X132727132Y-94368976D01*
X132849371Y-94290350D01*
X132849381Y-94290343D01*
X132860551Y-94283158D01*
X132870893Y-94274828D01*
X132879983Y-94268272D01*
X132888978Y-94261591D01*
X132900047Y-94254251D01*
X133022175Y-94153039D01*
X133027569Y-94148631D01*
X133143264Y-94055443D01*
X133151065Y-94049160D01*
X133155412Y-94045042D01*
X133157527Y-94042927D01*
X133167514Y-94033974D01*
X133167271Y-94033710D01*
X133177037Y-94024698D01*
X133187267Y-94016220D01*
X133299324Y-93901190D01*
X133303913Y-93896541D01*
X139733801Y-87466654D01*
X139847502Y-87381538D01*
X139980577Y-87331904D01*
X140086647Y-87320500D01*
X140583354Y-87320500D01*
X140723939Y-87340713D01*
X140853134Y-87399714D01*
X140936200Y-87466654D01*
X147289695Y-93820150D01*
X147312589Y-93844636D01*
X147346893Y-93883890D01*
X147426237Y-93957235D01*
X147440361Y-93970816D01*
X147450702Y-93981157D01*
X147455650Y-93985605D01*
X147455657Y-93985611D01*
X147499241Y-94024785D01*
X147504276Y-94029373D01*
X147620820Y-94137106D01*
X147631476Y-94145034D01*
X147640034Y-94152139D01*
X147648802Y-94159214D01*
X147658695Y-94168106D01*
X147787314Y-94261040D01*
X147792796Y-94265059D01*
X147817122Y-94283158D01*
X147909449Y-94351852D01*
X147909456Y-94351857D01*
X147920104Y-94359779D01*
X147931537Y-94366527D01*
X147940890Y-94372741D01*
X147950298Y-94378804D01*
X147961059Y-94386579D01*
X148090242Y-94460413D01*
X148098780Y-94465293D01*
X148104798Y-94468789D01*
X148241355Y-94549388D01*
X148253452Y-94554888D01*
X148263446Y-94560091D01*
X148273396Y-94565095D01*
X148284926Y-94571685D01*
X148409521Y-94626248D01*
X148430182Y-94635296D01*
X148436532Y-94638129D01*
X148580936Y-94703786D01*
X148593541Y-94707967D01*
X148603919Y-94712034D01*
X148614458Y-94715995D01*
X148626630Y-94721326D01*
X148744156Y-94758495D01*
X148777823Y-94769142D01*
X148784452Y-94771290D01*
X148875686Y-94801551D01*
X148935001Y-94821225D01*
X148947985Y-94824044D01*
X148958692Y-94826973D01*
X148969622Y-94829800D01*
X148982301Y-94833810D01*
X148995330Y-94836449D01*
X148995334Y-94836450D01*
X149042860Y-94846076D01*
X149137768Y-94865299D01*
X149144470Y-94866706D01*
X149299542Y-94900375D01*
X149312760Y-94901799D01*
X149323775Y-94903583D01*
X149334885Y-94905224D01*
X149347910Y-94907862D01*
X149361140Y-94909101D01*
X149505814Y-94922650D01*
X149512741Y-94923348D01*
X149660454Y-94939264D01*
X149660471Y-94939265D01*
X149670428Y-94940338D01*
X149676414Y-94940500D01*
X149679447Y-94940500D01*
X149692804Y-94941207D01*
X149692817Y-94940872D01*
X149706089Y-94941405D01*
X149719319Y-94942644D01*
X149879810Y-94940543D01*
X149886341Y-94940500D01*
X153535541Y-94940500D01*
X153569045Y-94941626D01*
X153607808Y-94944235D01*
X153607817Y-94944235D01*
X153621056Y-94945126D01*
X153634319Y-94944605D01*
X153634327Y-94944605D01*
X153728999Y-94940885D01*
X153748589Y-94940500D01*
X153763239Y-94940500D01*
X153828419Y-94937027D01*
X153835366Y-94936705D01*
X153863148Y-94935614D01*
X153980523Y-94931003D01*
X153980528Y-94931003D01*
X153993803Y-94930481D01*
X154006955Y-94928551D01*
X154018185Y-94927509D01*
X154029247Y-94926327D01*
X154042505Y-94925620D01*
X154199179Y-94900385D01*
X154205938Y-94899345D01*
X154349729Y-94878240D01*
X154349737Y-94878238D01*
X154362882Y-94876309D01*
X154375751Y-94872993D01*
X154386781Y-94870769D01*
X154397684Y-94868412D01*
X154410792Y-94866300D01*
X154423608Y-94862806D01*
X154563793Y-94824588D01*
X154570525Y-94822803D01*
X154711233Y-94786544D01*
X154711246Y-94786540D01*
X154724114Y-94783224D01*
X154736570Y-94778554D01*
X154747343Y-94775157D01*
X154757871Y-94771676D01*
X154770691Y-94768181D01*
X154783049Y-94763350D01*
X154783062Y-94763346D01*
X154918486Y-94710409D01*
X154924996Y-94707917D01*
X155060975Y-94656942D01*
X155060982Y-94656939D01*
X155073410Y-94652280D01*
X155085276Y-94646325D01*
X155095486Y-94641864D01*
X155105741Y-94637212D01*
X155118124Y-94632372D01*
X155258949Y-94559219D01*
X155264999Y-94556131D01*
X155406814Y-94484960D01*
X155417992Y-94477770D01*
X155427685Y-94472241D01*
X155437364Y-94466540D01*
X155449159Y-94460413D01*
X155493912Y-94430736D01*
X155581297Y-94372787D01*
X155587132Y-94368976D01*
X155709371Y-94290350D01*
X155709381Y-94290343D01*
X155720551Y-94283158D01*
X155730893Y-94274828D01*
X155739983Y-94268272D01*
X155748978Y-94261591D01*
X155760047Y-94254251D01*
X155882175Y-94153039D01*
X155887569Y-94148631D01*
X156003264Y-94055443D01*
X156011065Y-94049160D01*
X156015412Y-94045042D01*
X156017527Y-94042927D01*
X156027514Y-94033974D01*
X156027271Y-94033710D01*
X156037037Y-94024698D01*
X156047267Y-94016220D01*
X156159324Y-93901190D01*
X156163913Y-93896541D01*
X162593801Y-87466654D01*
X162707502Y-87381538D01*
X162840577Y-87331904D01*
X162946647Y-87320500D01*
X163443354Y-87320500D01*
X163583939Y-87340713D01*
X163713134Y-87399714D01*
X163796200Y-87466654D01*
X170149695Y-93820150D01*
X170172589Y-93844636D01*
X170206893Y-93883890D01*
X170286237Y-93957235D01*
X170300361Y-93970816D01*
X170310702Y-93981157D01*
X170315650Y-93985605D01*
X170315657Y-93985611D01*
X170359241Y-94024785D01*
X170364276Y-94029373D01*
X170480820Y-94137106D01*
X170491476Y-94145034D01*
X170500034Y-94152139D01*
X170508802Y-94159214D01*
X170518695Y-94168106D01*
X170647314Y-94261040D01*
X170652796Y-94265059D01*
X170677122Y-94283158D01*
X170769449Y-94351852D01*
X170769456Y-94351857D01*
X170780104Y-94359779D01*
X170791537Y-94366527D01*
X170800890Y-94372741D01*
X170810298Y-94378804D01*
X170821059Y-94386579D01*
X170950242Y-94460413D01*
X170958780Y-94465293D01*
X170964798Y-94468789D01*
X171101355Y-94549388D01*
X171113452Y-94554888D01*
X171123446Y-94560091D01*
X171133396Y-94565095D01*
X171144926Y-94571685D01*
X171269521Y-94626248D01*
X171290182Y-94635296D01*
X171296532Y-94638129D01*
X171440936Y-94703786D01*
X171453541Y-94707967D01*
X171463919Y-94712034D01*
X171474458Y-94715995D01*
X171486630Y-94721326D01*
X171604156Y-94758495D01*
X171637823Y-94769142D01*
X171644452Y-94771290D01*
X171735686Y-94801551D01*
X171795001Y-94821225D01*
X171807985Y-94824044D01*
X171818692Y-94826973D01*
X171829622Y-94829800D01*
X171842301Y-94833810D01*
X171855330Y-94836449D01*
X171855334Y-94836450D01*
X171902860Y-94846076D01*
X171997768Y-94865299D01*
X172004470Y-94866706D01*
X172159542Y-94900375D01*
X172172760Y-94901799D01*
X172183775Y-94903583D01*
X172194885Y-94905224D01*
X172207910Y-94907862D01*
X172221140Y-94909101D01*
X172365814Y-94922650D01*
X172372741Y-94923348D01*
X172520454Y-94939264D01*
X172520471Y-94939265D01*
X172530428Y-94940338D01*
X172536414Y-94940500D01*
X172539447Y-94940500D01*
X172552804Y-94941207D01*
X172552817Y-94940872D01*
X172566089Y-94941405D01*
X172579319Y-94942644D01*
X172739810Y-94940543D01*
X172746341Y-94940500D01*
X176395541Y-94940500D01*
X176429045Y-94941626D01*
X176467808Y-94944235D01*
X176467817Y-94944235D01*
X176481056Y-94945126D01*
X176494319Y-94944605D01*
X176494327Y-94944605D01*
X176588999Y-94940885D01*
X176608589Y-94940500D01*
X176623239Y-94940500D01*
X176688419Y-94937027D01*
X176695366Y-94936705D01*
X176723148Y-94935614D01*
X176840523Y-94931003D01*
X176840528Y-94931003D01*
X176853803Y-94930481D01*
X176866955Y-94928551D01*
X176878185Y-94927509D01*
X176889247Y-94926327D01*
X176902505Y-94925620D01*
X177059179Y-94900385D01*
X177065938Y-94899345D01*
X177209729Y-94878240D01*
X177209737Y-94878238D01*
X177222882Y-94876309D01*
X177235751Y-94872993D01*
X177246781Y-94870769D01*
X177257684Y-94868412D01*
X177270792Y-94866300D01*
X177283608Y-94862806D01*
X177423793Y-94824588D01*
X177430525Y-94822803D01*
X177571233Y-94786544D01*
X177571246Y-94786540D01*
X177584114Y-94783224D01*
X177596570Y-94778554D01*
X177607343Y-94775157D01*
X177617871Y-94771676D01*
X177630691Y-94768181D01*
X177643049Y-94763350D01*
X177643062Y-94763346D01*
X177778486Y-94710409D01*
X177784996Y-94707917D01*
X177920975Y-94656942D01*
X177920982Y-94656939D01*
X177933410Y-94652280D01*
X177945276Y-94646325D01*
X177955486Y-94641864D01*
X177965741Y-94637212D01*
X177978124Y-94632372D01*
X178118949Y-94559219D01*
X178124999Y-94556131D01*
X178266814Y-94484960D01*
X178277992Y-94477770D01*
X178287685Y-94472241D01*
X178297364Y-94466540D01*
X178309159Y-94460413D01*
X178353912Y-94430736D01*
X178441297Y-94372787D01*
X178447132Y-94368976D01*
X178569371Y-94290350D01*
X178569381Y-94290343D01*
X178580551Y-94283158D01*
X178590893Y-94274828D01*
X178599983Y-94268272D01*
X178608978Y-94261591D01*
X178620047Y-94254251D01*
X178742175Y-94153039D01*
X178747569Y-94148631D01*
X178863264Y-94055443D01*
X178871065Y-94049160D01*
X178875412Y-94045042D01*
X178877527Y-94042927D01*
X178887514Y-94033974D01*
X178887271Y-94033710D01*
X178897037Y-94024698D01*
X178907267Y-94016220D01*
X179019324Y-93901190D01*
X179023912Y-93896542D01*
X183158008Y-89762446D01*
X183271706Y-89677333D01*
X183404781Y-89627699D01*
X183546449Y-89617566D01*
X183685234Y-89647757D01*
X183809891Y-89715825D01*
X183910321Y-89816255D01*
X183978389Y-89940912D01*
X183992278Y-89984036D01*
X183993321Y-89987863D01*
X183993325Y-89987875D01*
X183996819Y-90000691D01*
X184132628Y-90348124D01*
X184304587Y-90679159D01*
X184311923Y-90690222D01*
X184311928Y-90690230D01*
X184503403Y-90978970D01*
X184510749Y-90990047D01*
X184748780Y-91277267D01*
X185015985Y-91537566D01*
X185133749Y-91630071D01*
X185231813Y-91732804D01*
X185296965Y-91859009D01*
X185323922Y-91998458D01*
X185324500Y-92022478D01*
X185324500Y-92617383D01*
X185305404Y-92751560D01*
X185303190Y-92757610D01*
X185268891Y-92914919D01*
X185250447Y-92999513D01*
X185242178Y-93037436D01*
X185219707Y-93322953D01*
X185236194Y-93608878D01*
X185291332Y-93889920D01*
X185296834Y-93905989D01*
X185296835Y-93905994D01*
X185340653Y-94033974D01*
X185384102Y-94160878D01*
X185391738Y-94176060D01*
X185391739Y-94176063D01*
X185500934Y-94393172D01*
X185512787Y-94416740D01*
X185522405Y-94430734D01*
X185522406Y-94430736D01*
X185619278Y-94571685D01*
X185675006Y-94652770D01*
X185867756Y-94864600D01*
X185880797Y-94875504D01*
X186074429Y-95037406D01*
X186074435Y-95037410D01*
X186087472Y-95048311D01*
X186330088Y-95200503D01*
X186591114Y-95318361D01*
X186607399Y-95323185D01*
X186607402Y-95323186D01*
X186673554Y-95342781D01*
X186865719Y-95399703D01*
X186882514Y-95402273D01*
X187087898Y-95433701D01*
X187148824Y-95443024D01*
X187435189Y-95447523D01*
X187452044Y-95445483D01*
X187452049Y-95445483D01*
X187577351Y-95430319D01*
X187719514Y-95413115D01*
X187724648Y-95411768D01*
X187860957Y-95405536D01*
X187998920Y-95439285D01*
X188121786Y-95510535D01*
X188219601Y-95613514D01*
X188284442Y-95739880D01*
X188311054Y-95879394D01*
X188311059Y-95911985D01*
X188311313Y-95919264D01*
X188310404Y-95939288D01*
X188339081Y-96187140D01*
X188344536Y-96206416D01*
X188399922Y-96402145D01*
X188407017Y-96427219D01*
X188512462Y-96653348D01*
X188523727Y-96669923D01*
X188523727Y-96669924D01*
X188627332Y-96822373D01*
X188652706Y-96859710D01*
X188824138Y-97040994D01*
X188840053Y-97053162D01*
X188989601Y-97167500D01*
X189022349Y-97192538D01*
X189242239Y-97310443D01*
X189366380Y-97353188D01*
X189459198Y-97385148D01*
X189459202Y-97385149D01*
X189478152Y-97391674D01*
X189497898Y-97395085D01*
X189497903Y-97395086D01*
X189617555Y-97415753D01*
X189724017Y-97434142D01*
X189739679Y-97434853D01*
X189739686Y-97434854D01*
X189748274Y-97435244D01*
X189748295Y-97435244D01*
X189753922Y-97435500D01*
X189927691Y-97435500D01*
X190113702Y-97420534D01*
X190356006Y-97361018D01*
X190585677Y-97263529D01*
X190796808Y-97130573D01*
X190811834Y-97117326D01*
X190968935Y-96978823D01*
X190968937Y-96978821D01*
X190983965Y-96965572D01*
X191142334Y-96772770D01*
X191191402Y-96688462D01*
X191257758Y-96574451D01*
X191257759Y-96574449D01*
X191267840Y-96557128D01*
X191275022Y-96538418D01*
X191275025Y-96538412D01*
X191350071Y-96342911D01*
X191350072Y-96342906D01*
X191357255Y-96324195D01*
X191385887Y-96187140D01*
X191404179Y-96099584D01*
X191404180Y-96099579D01*
X191408278Y-96079961D01*
X191415906Y-95911985D01*
X191418687Y-95850735D01*
X191418687Y-95850732D01*
X191419596Y-95830712D01*
X191390919Y-95582860D01*
X191339818Y-95402273D01*
X191328439Y-95362061D01*
X191328438Y-95362058D01*
X191322983Y-95342781D01*
X191256638Y-95200503D01*
X191226009Y-95134818D01*
X191226008Y-95134817D01*
X191217538Y-95116652D01*
X191196939Y-95086342D01*
X191088558Y-94926864D01*
X191088556Y-94926862D01*
X191077294Y-94910290D01*
X191078084Y-94909753D01*
X191014904Y-94802996D01*
X190979933Y-94665338D01*
X190985162Y-94523404D01*
X191030167Y-94388693D01*
X191090536Y-94295830D01*
X191142334Y-94232770D01*
X191193536Y-94144796D01*
X191257758Y-94034451D01*
X191257759Y-94034449D01*
X191267840Y-94017128D01*
X191275022Y-93998418D01*
X191275025Y-93998412D01*
X191350071Y-93802911D01*
X191350072Y-93802906D01*
X191357255Y-93784195D01*
X191371172Y-93717579D01*
X191404179Y-93559584D01*
X191404180Y-93559579D01*
X191408278Y-93539961D01*
X191416725Y-93353945D01*
X191418687Y-93310735D01*
X191418687Y-93310732D01*
X191419596Y-93290712D01*
X191390919Y-93042860D01*
X191322983Y-92802781D01*
X191217538Y-92576652D01*
X191206273Y-92560076D01*
X191088560Y-92386867D01*
X191088558Y-92386865D01*
X191077294Y-92370290D01*
X190905862Y-92189006D01*
X190707651Y-92037462D01*
X190634910Y-91998458D01*
X190505422Y-91929027D01*
X190487761Y-91919557D01*
X190468816Y-91913034D01*
X190468812Y-91913032D01*
X190300108Y-91854943D01*
X190173763Y-91790061D01*
X190070816Y-91692213D01*
X189999605Y-91569324D01*
X189965901Y-91431350D01*
X189972434Y-91289470D01*
X190018675Y-91155178D01*
X190062213Y-91085274D01*
X190244779Y-90839896D01*
X190434388Y-90518645D01*
X190511919Y-90348124D01*
X190583283Y-90191168D01*
X190583285Y-90191162D01*
X190588786Y-90179064D01*
X190706225Y-89824999D01*
X190729930Y-89715825D01*
X190782556Y-89473443D01*
X190782557Y-89473437D01*
X190785375Y-89460458D01*
X190825338Y-89089572D01*
X190825500Y-89083586D01*
X190825500Y-87129459D01*
X190826626Y-87095955D01*
X190829235Y-87057192D01*
X190829235Y-87057183D01*
X190830126Y-87043944D01*
X190825885Y-86936001D01*
X190825500Y-86916411D01*
X190825500Y-86901761D01*
X190822027Y-86836581D01*
X190821705Y-86829625D01*
X190816003Y-86684477D01*
X190816003Y-86684472D01*
X190815481Y-86671197D01*
X190813551Y-86658045D01*
X190812509Y-86646815D01*
X190811327Y-86635753D01*
X190810620Y-86622495D01*
X190785385Y-86465821D01*
X190784345Y-86459062D01*
X190763240Y-86315271D01*
X190763238Y-86315263D01*
X190761309Y-86302118D01*
X190757993Y-86289249D01*
X190755775Y-86278249D01*
X190753413Y-86267325D01*
X190751300Y-86254208D01*
X190709561Y-86101108D01*
X190707797Y-86094454D01*
X190671538Y-85953745D01*
X190671537Y-85953743D01*
X190668224Y-85940885D01*
X190663562Y-85928447D01*
X190660173Y-85917700D01*
X190656674Y-85907121D01*
X190653181Y-85894309D01*
X190595431Y-85746571D01*
X190592939Y-85740062D01*
X190541944Y-85604032D01*
X190537280Y-85591590D01*
X190531318Y-85579711D01*
X190526844Y-85569470D01*
X190522212Y-85559259D01*
X190517372Y-85546876D01*
X190444219Y-85406051D01*
X190441131Y-85400001D01*
X190369960Y-85258186D01*
X190362770Y-85247008D01*
X190357241Y-85237315D01*
X190351540Y-85227636D01*
X190345413Y-85215841D01*
X190257784Y-85083699D01*
X190253976Y-85077868D01*
X190175350Y-84955629D01*
X190175343Y-84955619D01*
X190168158Y-84944449D01*
X190159828Y-84934107D01*
X190153272Y-84925017D01*
X190146591Y-84916022D01*
X190139251Y-84904953D01*
X190038039Y-84782825D01*
X190033631Y-84777431D01*
X189940443Y-84661736D01*
X189934160Y-84653935D01*
X189930042Y-84649588D01*
X189927927Y-84647473D01*
X189918974Y-84637486D01*
X189918710Y-84637729D01*
X189909698Y-84627963D01*
X189901220Y-84617733D01*
X189786189Y-84505675D01*
X189781541Y-84501087D01*
X186663569Y-81383115D01*
X186654154Y-81373442D01*
X186572144Y-81286870D01*
X186572131Y-81286858D01*
X186563005Y-81277224D01*
X186460910Y-81190180D01*
X186451103Y-81181595D01*
X186361190Y-81100779D01*
X186351305Y-81091894D01*
X186330319Y-81076731D01*
X186298831Y-81051997D01*
X186279136Y-81035205D01*
X186215520Y-80991728D01*
X186168382Y-80959512D01*
X186157696Y-80952002D01*
X186119134Y-80924139D01*
X186048941Y-80873421D01*
X186037418Y-80866835D01*
X186037410Y-80866830D01*
X186026464Y-80860574D01*
X185992522Y-80839323D01*
X185982132Y-80832222D01*
X185982122Y-80832216D01*
X185971157Y-80824722D01*
X185852980Y-80761223D01*
X185841577Y-80754902D01*
X185775907Y-80717369D01*
X185725073Y-80688315D01*
X185712902Y-80682985D01*
X185712896Y-80682982D01*
X185701359Y-80677930D01*
X185665344Y-80660403D01*
X185642555Y-80648158D01*
X185566749Y-80617299D01*
X185518315Y-80597583D01*
X185506279Y-80592499D01*
X185395550Y-80544008D01*
X185395551Y-80544008D01*
X185383370Y-80538674D01*
X185370706Y-80534669D01*
X185370685Y-80534661D01*
X185358688Y-80530867D01*
X185321037Y-80517275D01*
X185309371Y-80512526D01*
X185309352Y-80512519D01*
X185297051Y-80507512D01*
X185168105Y-80470416D01*
X185155597Y-80466639D01*
X185040370Y-80430197D01*
X185040364Y-80430196D01*
X185027699Y-80426190D01*
X185010850Y-80422777D01*
X185002319Y-80421049D01*
X184963439Y-80411536D01*
X184938558Y-80404378D01*
X184852183Y-80389225D01*
X184806422Y-80381197D01*
X184793588Y-80378772D01*
X184712977Y-80362445D01*
X184662090Y-80352138D01*
X184643660Y-80350412D01*
X184636338Y-80349726D01*
X184596640Y-80344394D01*
X184584211Y-80342213D01*
X184584198Y-80342211D01*
X184571136Y-80339920D01*
X184469434Y-80333076D01*
X184437248Y-80330910D01*
X184424227Y-80329862D01*
X184303913Y-80318595D01*
X184303910Y-80318595D01*
X184290681Y-80317356D01*
X184264798Y-80317695D01*
X184224778Y-80316612D01*
X184213223Y-80315835D01*
X184212186Y-80315765D01*
X184212185Y-80315765D01*
X184198944Y-80314874D01*
X184185680Y-80315395D01*
X184185672Y-80315395D01*
X184064894Y-80320140D01*
X184051840Y-80320482D01*
X183932571Y-80322044D01*
X183917679Y-80322239D01*
X183891961Y-80325328D01*
X183852057Y-80328503D01*
X183826197Y-80329519D01*
X183701260Y-80347857D01*
X183693473Y-80349000D01*
X183680524Y-80350728D01*
X183547308Y-80366730D01*
X183522072Y-80372533D01*
X183482732Y-80379931D01*
X183457118Y-80383691D01*
X183444249Y-80387007D01*
X183444245Y-80387008D01*
X183385749Y-80402082D01*
X183327200Y-80417169D01*
X183314517Y-80420261D01*
X183196721Y-80447348D01*
X183196716Y-80447350D01*
X183183763Y-80450328D01*
X183171202Y-80454665D01*
X183171196Y-80454667D01*
X183159299Y-80458775D01*
X183120941Y-80470319D01*
X183095885Y-80476776D01*
X182970241Y-80523877D01*
X182957991Y-80528287D01*
X182843722Y-80567744D01*
X182843712Y-80567748D01*
X182831158Y-80572083D01*
X182807731Y-80583082D01*
X182770819Y-80598636D01*
X182759034Y-80603054D01*
X182759024Y-80603058D01*
X182746589Y-80607720D01*
X182734722Y-80613676D01*
X182734714Y-80613679D01*
X182626683Y-80667895D01*
X182614953Y-80673591D01*
X182493489Y-80730619D01*
X182471358Y-80744048D01*
X182436324Y-80763428D01*
X182413186Y-80775040D01*
X182345720Y-80818436D01*
X182300365Y-80847609D01*
X182289289Y-80854530D01*
X182234515Y-80887768D01*
X182174577Y-80924139D01*
X182164021Y-80932195D01*
X182164018Y-80932197D01*
X182153997Y-80939845D01*
X182121218Y-80962839D01*
X182110620Y-80969656D01*
X182110615Y-80969660D01*
X182099449Y-80976842D01*
X182063560Y-81005749D01*
X181994973Y-81060993D01*
X181984696Y-81069052D01*
X181878037Y-81150452D01*
X181868398Y-81159583D01*
X181859251Y-81168248D01*
X181829095Y-81194601D01*
X181816740Y-81204552D01*
X181816721Y-81204569D01*
X181808935Y-81210840D01*
X181804587Y-81214958D01*
X181713096Y-81306449D01*
X181703423Y-81315864D01*
X181616869Y-81397857D01*
X181616858Y-81397869D01*
X181607224Y-81406995D01*
X181598617Y-81417091D01*
X181598611Y-81417097D01*
X181589283Y-81428039D01*
X181562399Y-81457147D01*
X175226200Y-87793346D01*
X175112499Y-87878462D01*
X174979424Y-87928096D01*
X174873354Y-87939500D01*
X174376647Y-87939500D01*
X174236062Y-87919287D01*
X174106867Y-87860286D01*
X174023801Y-87793346D01*
X167670312Y-81439858D01*
X167647417Y-81415371D01*
X167640097Y-81406995D01*
X167613107Y-81376110D01*
X167533750Y-81302753D01*
X167519626Y-81289172D01*
X167509297Y-81278843D01*
X167460785Y-81235239D01*
X167455724Y-81230626D01*
X167339180Y-81122894D01*
X167328524Y-81114966D01*
X167319966Y-81107861D01*
X167311198Y-81100786D01*
X167301305Y-81091894D01*
X167172686Y-80998960D01*
X167167181Y-80994924D01*
X167162886Y-80991728D01*
X167093153Y-80939845D01*
X167050551Y-80908148D01*
X167050544Y-80908143D01*
X167039896Y-80900221D01*
X167028463Y-80893473D01*
X167019110Y-80887259D01*
X167009702Y-80881196D01*
X166998941Y-80873421D01*
X166861249Y-80794723D01*
X166855263Y-80791246D01*
X166730095Y-80717369D01*
X166730080Y-80717361D01*
X166718645Y-80710612D01*
X166706549Y-80705112D01*
X166696519Y-80699891D01*
X166686596Y-80694901D01*
X166675073Y-80688315D01*
X166529817Y-80624704D01*
X166523536Y-80621902D01*
X166379064Y-80556214D01*
X166366448Y-80552029D01*
X166356022Y-80547943D01*
X166345537Y-80544002D01*
X166333370Y-80538674D01*
X166320713Y-80534671D01*
X166320710Y-80534670D01*
X166182177Y-80490858D01*
X166175548Y-80488710D01*
X166037613Y-80442959D01*
X166037614Y-80442959D01*
X166024999Y-80438775D01*
X166012015Y-80435956D01*
X166001308Y-80433027D01*
X165990378Y-80430200D01*
X165977699Y-80426190D01*
X165964670Y-80423551D01*
X165964666Y-80423550D01*
X165858674Y-80402082D01*
X165822232Y-80394701D01*
X165815530Y-80393294D01*
X165660458Y-80359625D01*
X165647240Y-80358201D01*
X165636225Y-80356417D01*
X165625115Y-80354776D01*
X165612090Y-80352138D01*
X165588705Y-80349948D01*
X165454186Y-80337350D01*
X165447259Y-80336652D01*
X165299546Y-80320736D01*
X165299529Y-80320735D01*
X165289572Y-80319662D01*
X165283586Y-80319500D01*
X165280553Y-80319500D01*
X165267196Y-80318793D01*
X165267183Y-80319128D01*
X165253911Y-80318595D01*
X165240681Y-80317356D01*
X165080190Y-80319457D01*
X165073658Y-80319500D01*
X161424459Y-80319500D01*
X161390955Y-80318374D01*
X161352192Y-80315765D01*
X161352183Y-80315765D01*
X161338944Y-80314874D01*
X161325681Y-80315395D01*
X161325673Y-80315395D01*
X161231001Y-80319115D01*
X161211411Y-80319500D01*
X161196761Y-80319500D01*
X161131581Y-80322973D01*
X161124634Y-80323295D01*
X161111184Y-80323823D01*
X160979477Y-80328997D01*
X160979472Y-80328997D01*
X160966197Y-80329519D01*
X160953045Y-80331449D01*
X160941815Y-80332491D01*
X160930753Y-80333673D01*
X160917495Y-80334380D01*
X160760821Y-80359615D01*
X160754062Y-80360655D01*
X160610271Y-80381760D01*
X160610263Y-80381762D01*
X160597118Y-80383691D01*
X160584249Y-80387007D01*
X160573249Y-80389225D01*
X160562325Y-80391587D01*
X160549208Y-80393700D01*
X160396108Y-80435439D01*
X160389468Y-80437199D01*
X160235885Y-80476776D01*
X160223432Y-80481445D01*
X160212673Y-80484837D01*
X160202125Y-80488325D01*
X160189309Y-80491819D01*
X160176938Y-80496655D01*
X160176928Y-80496658D01*
X160041552Y-80549575D01*
X160035048Y-80552065D01*
X159899029Y-80603056D01*
X159899022Y-80603059D01*
X159886589Y-80607720D01*
X159874726Y-80613673D01*
X159864461Y-80618158D01*
X159854234Y-80622797D01*
X159841876Y-80627628D01*
X159830100Y-80633745D01*
X159830085Y-80633752D01*
X159701167Y-80700720D01*
X159694962Y-80703889D01*
X159565057Y-80769082D01*
X159565050Y-80769086D01*
X159553186Y-80775040D01*
X159542016Y-80782225D01*
X159532332Y-80787749D01*
X159522636Y-80793460D01*
X159510841Y-80799587D01*
X159499763Y-80806933D01*
X159499760Y-80806935D01*
X159378703Y-80887213D01*
X159372868Y-80891024D01*
X159250629Y-80969650D01*
X159250621Y-80969656D01*
X159239449Y-80976842D01*
X159229110Y-80985170D01*
X159220017Y-80991728D01*
X159211022Y-80998409D01*
X159199953Y-81005749D01*
X159077826Y-81106961D01*
X159072431Y-81111369D01*
X158956736Y-81204557D01*
X158948935Y-81210840D01*
X158944587Y-81214958D01*
X158942462Y-81217083D01*
X158932490Y-81226039D01*
X158932725Y-81226294D01*
X158922964Y-81235301D01*
X158912733Y-81243780D01*
X158903462Y-81253297D01*
X158800713Y-81358772D01*
X158796124Y-81363421D01*
X155509958Y-84649588D01*
X152366200Y-87793346D01*
X152252499Y-87878462D01*
X152119424Y-87928096D01*
X152013354Y-87939500D01*
X151516647Y-87939500D01*
X151376062Y-87919287D01*
X151246867Y-87860286D01*
X151163801Y-87793346D01*
X144810312Y-81439858D01*
X144787417Y-81415371D01*
X144780097Y-81406995D01*
X144753107Y-81376110D01*
X144673750Y-81302753D01*
X144659626Y-81289172D01*
X144649297Y-81278843D01*
X144600785Y-81235239D01*
X144595724Y-81230626D01*
X144479180Y-81122894D01*
X144468524Y-81114966D01*
X144459966Y-81107861D01*
X144451198Y-81100786D01*
X144441305Y-81091894D01*
X144312686Y-80998960D01*
X144307181Y-80994924D01*
X144302886Y-80991728D01*
X144233153Y-80939845D01*
X144190551Y-80908148D01*
X144190544Y-80908143D01*
X144179896Y-80900221D01*
X144168463Y-80893473D01*
X144159110Y-80887259D01*
X144149702Y-80881196D01*
X144138941Y-80873421D01*
X144001249Y-80794723D01*
X143995263Y-80791246D01*
X143870095Y-80717369D01*
X143870080Y-80717361D01*
X143858645Y-80710612D01*
X143846549Y-80705112D01*
X143836519Y-80699891D01*
X143826596Y-80694901D01*
X143815073Y-80688315D01*
X143669817Y-80624704D01*
X143663536Y-80621902D01*
X143519064Y-80556214D01*
X143506448Y-80552029D01*
X143496022Y-80547943D01*
X143485537Y-80544002D01*
X143473370Y-80538674D01*
X143460713Y-80534671D01*
X143460710Y-80534670D01*
X143322177Y-80490858D01*
X143315548Y-80488710D01*
X143177613Y-80442959D01*
X143177614Y-80442959D01*
X143164999Y-80438775D01*
X143152015Y-80435956D01*
X143141308Y-80433027D01*
X143130378Y-80430200D01*
X143117699Y-80426190D01*
X143104670Y-80423551D01*
X143104666Y-80423550D01*
X142998674Y-80402082D01*
X142962232Y-80394701D01*
X142955530Y-80393294D01*
X142800458Y-80359625D01*
X142787240Y-80358201D01*
X142776225Y-80356417D01*
X142765115Y-80354776D01*
X142752090Y-80352138D01*
X142728705Y-80349948D01*
X142594186Y-80337350D01*
X142587259Y-80336652D01*
X142439546Y-80320736D01*
X142439529Y-80320735D01*
X142429572Y-80319662D01*
X142423586Y-80319500D01*
X142420553Y-80319500D01*
X142407196Y-80318793D01*
X142407183Y-80319128D01*
X142393911Y-80318595D01*
X142380681Y-80317356D01*
X142220190Y-80319457D01*
X142213658Y-80319500D01*
X138564459Y-80319500D01*
X138530955Y-80318374D01*
X138492192Y-80315765D01*
X138492183Y-80315765D01*
X138478944Y-80314874D01*
X138465681Y-80315395D01*
X138465673Y-80315395D01*
X138371001Y-80319115D01*
X138351411Y-80319500D01*
X138336761Y-80319500D01*
X138271581Y-80322973D01*
X138264634Y-80323295D01*
X138251184Y-80323823D01*
X138119477Y-80328997D01*
X138119472Y-80328997D01*
X138106197Y-80329519D01*
X138093045Y-80331449D01*
X138081815Y-80332491D01*
X138070753Y-80333673D01*
X138057495Y-80334380D01*
X137900821Y-80359615D01*
X137894062Y-80360655D01*
X137750271Y-80381760D01*
X137750263Y-80381762D01*
X137737118Y-80383691D01*
X137724249Y-80387007D01*
X137713249Y-80389225D01*
X137702325Y-80391587D01*
X137689208Y-80393700D01*
X137536108Y-80435439D01*
X137529468Y-80437199D01*
X137375885Y-80476776D01*
X137363432Y-80481445D01*
X137352673Y-80484837D01*
X137342125Y-80488325D01*
X137329309Y-80491819D01*
X137316938Y-80496655D01*
X137316928Y-80496658D01*
X137181552Y-80549575D01*
X137175048Y-80552065D01*
X137039029Y-80603056D01*
X137039022Y-80603059D01*
X137026589Y-80607720D01*
X137014726Y-80613673D01*
X137004461Y-80618158D01*
X136994234Y-80622797D01*
X136981876Y-80627628D01*
X136970100Y-80633745D01*
X136970085Y-80633752D01*
X136841167Y-80700720D01*
X136834962Y-80703889D01*
X136705057Y-80769082D01*
X136705050Y-80769086D01*
X136693186Y-80775040D01*
X136682016Y-80782225D01*
X136672332Y-80787749D01*
X136662636Y-80793460D01*
X136650841Y-80799587D01*
X136639763Y-80806933D01*
X136639760Y-80806935D01*
X136518703Y-80887213D01*
X136512868Y-80891024D01*
X136390629Y-80969650D01*
X136390621Y-80969656D01*
X136379449Y-80976842D01*
X136369110Y-80985170D01*
X136360017Y-80991728D01*
X136351022Y-80998409D01*
X136339953Y-81005749D01*
X136217826Y-81106961D01*
X136212431Y-81111369D01*
X136096736Y-81204557D01*
X136088935Y-81210840D01*
X136084587Y-81214958D01*
X136082462Y-81217083D01*
X136072490Y-81226039D01*
X136072725Y-81226294D01*
X136062964Y-81235301D01*
X136052733Y-81243780D01*
X136043462Y-81253297D01*
X135940713Y-81358772D01*
X135936124Y-81363421D01*
X132649958Y-84649588D01*
X129506200Y-87793346D01*
X129392499Y-87878462D01*
X129259424Y-87928096D01*
X129153354Y-87939500D01*
X128656647Y-87939500D01*
X128516062Y-87919287D01*
X128386867Y-87860286D01*
X128303801Y-87793346D01*
X121950312Y-81439858D01*
X121927417Y-81415371D01*
X121920097Y-81406995D01*
X121893107Y-81376110D01*
X121813750Y-81302753D01*
X121799626Y-81289172D01*
X121789297Y-81278843D01*
X121740785Y-81235239D01*
X121735724Y-81230626D01*
X121619180Y-81122894D01*
X121608524Y-81114966D01*
X121599966Y-81107861D01*
X121591198Y-81100786D01*
X121581305Y-81091894D01*
X121452686Y-80998960D01*
X121447181Y-80994924D01*
X121442886Y-80991728D01*
X121373153Y-80939845D01*
X121330551Y-80908148D01*
X121330544Y-80908143D01*
X121319896Y-80900221D01*
X121308463Y-80893473D01*
X121299110Y-80887259D01*
X121289702Y-80881196D01*
X121278941Y-80873421D01*
X121141249Y-80794723D01*
X121135263Y-80791246D01*
X121010095Y-80717369D01*
X121010080Y-80717361D01*
X120998645Y-80710612D01*
X120986549Y-80705112D01*
X120976519Y-80699891D01*
X120966596Y-80694901D01*
X120955073Y-80688315D01*
X120809817Y-80624704D01*
X120803536Y-80621902D01*
X120659064Y-80556214D01*
X120646448Y-80552029D01*
X120636022Y-80547943D01*
X120625537Y-80544002D01*
X120613370Y-80538674D01*
X120600713Y-80534671D01*
X120600710Y-80534670D01*
X120462177Y-80490858D01*
X120455548Y-80488710D01*
X120317613Y-80442959D01*
X120317614Y-80442959D01*
X120304999Y-80438775D01*
X120292015Y-80435956D01*
X120281308Y-80433027D01*
X120270378Y-80430200D01*
X120257699Y-80426190D01*
X120244670Y-80423551D01*
X120244666Y-80423550D01*
X120138674Y-80402082D01*
X120102232Y-80394701D01*
X120095530Y-80393294D01*
X119940458Y-80359625D01*
X119927240Y-80358201D01*
X119916225Y-80356417D01*
X119905115Y-80354776D01*
X119892090Y-80352138D01*
X119868705Y-80349948D01*
X119734186Y-80337350D01*
X119727259Y-80336652D01*
X119579546Y-80320736D01*
X119579529Y-80320735D01*
X119569572Y-80319662D01*
X119563586Y-80319500D01*
X119560553Y-80319500D01*
X119547196Y-80318793D01*
X119547183Y-80319128D01*
X119533911Y-80318595D01*
X119520681Y-80317356D01*
X119360190Y-80319457D01*
X119353658Y-80319500D01*
X115704459Y-80319500D01*
X115670955Y-80318374D01*
X115632192Y-80315765D01*
X115632183Y-80315765D01*
X115618944Y-80314874D01*
X115605681Y-80315395D01*
X115605673Y-80315395D01*
X115511001Y-80319115D01*
X115491411Y-80319500D01*
X115476761Y-80319500D01*
X115411581Y-80322973D01*
X115404634Y-80323295D01*
X115391184Y-80323823D01*
X115259477Y-80328997D01*
X115259472Y-80328997D01*
X115246197Y-80329519D01*
X115233045Y-80331449D01*
X115221815Y-80332491D01*
X115210753Y-80333673D01*
X115197495Y-80334380D01*
X115040821Y-80359615D01*
X115034062Y-80360655D01*
X114890271Y-80381760D01*
X114890263Y-80381762D01*
X114877118Y-80383691D01*
X114864249Y-80387007D01*
X114853249Y-80389225D01*
X114842325Y-80391587D01*
X114829208Y-80393700D01*
X114676108Y-80435439D01*
X114669468Y-80437199D01*
X114515885Y-80476776D01*
X114503447Y-80481438D01*
X114492700Y-80484827D01*
X114482121Y-80488326D01*
X114469309Y-80491819D01*
X114456943Y-80496653D01*
X114321571Y-80549569D01*
X114315062Y-80552061D01*
X114273776Y-80567538D01*
X114166590Y-80607720D01*
X114154711Y-80613682D01*
X114144470Y-80618156D01*
X114134259Y-80622788D01*
X114121876Y-80627628D01*
X113981051Y-80700781D01*
X113975001Y-80703869D01*
X113833186Y-80775040D01*
X113822008Y-80782230D01*
X113812315Y-80787759D01*
X113802636Y-80793460D01*
X113790841Y-80799587D01*
X113779763Y-80806933D01*
X113779760Y-80806935D01*
X113658703Y-80887213D01*
X113652868Y-80891024D01*
X113530629Y-80969650D01*
X113530621Y-80969656D01*
X113519449Y-80976842D01*
X113509110Y-80985170D01*
X113500017Y-80991728D01*
X113491022Y-80998409D01*
X113479953Y-81005749D01*
X113357826Y-81106961D01*
X113352432Y-81111368D01*
X113228935Y-81210840D01*
X113224588Y-81214958D01*
X113222473Y-81217073D01*
X113212486Y-81226026D01*
X113212729Y-81226290D01*
X113202963Y-81235302D01*
X113192733Y-81243780D01*
X113183462Y-81253297D01*
X113183458Y-81253301D01*
X113080676Y-81358810D01*
X113076087Y-81363459D01*
X110342358Y-84097188D01*
X110317872Y-84120082D01*
X110278610Y-84154393D01*
X110269593Y-84164148D01*
X110205253Y-84233750D01*
X110191672Y-84247874D01*
X110181343Y-84258203D01*
X110137772Y-84306679D01*
X110133126Y-84311776D01*
X110025394Y-84428320D01*
X110017466Y-84438976D01*
X110010361Y-84447534D01*
X110003286Y-84456302D01*
X109994394Y-84466195D01*
X109901460Y-84594814D01*
X109897424Y-84600319D01*
X109810648Y-84716949D01*
X109810643Y-84716956D01*
X109802721Y-84727604D01*
X109795973Y-84739037D01*
X109789759Y-84748390D01*
X109783696Y-84757798D01*
X109775921Y-84768559D01*
X109697245Y-84906214D01*
X109693746Y-84912237D01*
X109619869Y-85037405D01*
X109619861Y-85037420D01*
X109613112Y-85048855D01*
X109607612Y-85060951D01*
X109602391Y-85070981D01*
X109597401Y-85080904D01*
X109590815Y-85092427D01*
X109585488Y-85104592D01*
X109527211Y-85237667D01*
X109524402Y-85243964D01*
X109458714Y-85388436D01*
X109454529Y-85401052D01*
X109450443Y-85411478D01*
X109446502Y-85421963D01*
X109441174Y-85434130D01*
X109437171Y-85446787D01*
X109437170Y-85446790D01*
X109393358Y-85585323D01*
X109391210Y-85591952D01*
X109351869Y-85710563D01*
X109341275Y-85742501D01*
X109338456Y-85755485D01*
X109335527Y-85766192D01*
X109332700Y-85777122D01*
X109328690Y-85789801D01*
X109298089Y-85940885D01*
X109297207Y-85945238D01*
X109295794Y-85951970D01*
X109262125Y-86107042D01*
X109260701Y-86120260D01*
X109258917Y-86131275D01*
X109257276Y-86142385D01*
X109254638Y-86155410D01*
X109253399Y-86168640D01*
X109239850Y-86313314D01*
X109239152Y-86320241D01*
X109223236Y-86467954D01*
X109223235Y-86467971D01*
X109222162Y-86477928D01*
X109222000Y-86483914D01*
X109222000Y-86486947D01*
X109221293Y-86500304D01*
X109221628Y-86500317D01*
X109221095Y-86513589D01*
X109219856Y-86526819D01*
X109221427Y-86646815D01*
X109221957Y-86687310D01*
X109222000Y-86693842D01*
X109222000Y-92180739D01*
X109222353Y-92187359D01*
X109222353Y-92187369D01*
X109232100Y-92370290D01*
X109236880Y-92460005D01*
X109238991Y-92473112D01*
X109238992Y-92473120D01*
X109269245Y-92660943D01*
X109296200Y-92828292D01*
X109299694Y-92841108D01*
X109354698Y-93042860D01*
X109394319Y-93188191D01*
X109399157Y-93200567D01*
X109399158Y-93200571D01*
X109446996Y-93322953D01*
X109530128Y-93535624D01*
X109536249Y-93547408D01*
X109536252Y-93547414D01*
X109662512Y-93790474D01*
X109709381Y-93924548D01*
X109716578Y-94066396D01*
X109683520Y-94204525D01*
X109612886Y-94327746D01*
X109510398Y-94426076D01*
X109384358Y-94491548D01*
X109244978Y-94518859D01*
X109219693Y-94519500D01*
X107690792Y-94519500D01*
X107550207Y-94499287D01*
X107530057Y-94492317D01*
X107518470Y-94486259D01*
X107323087Y-94430234D01*
X107202816Y-94419500D01*
X104887184Y-94419500D01*
X104766913Y-94430234D01*
X104571530Y-94486259D01*
X104391404Y-94580427D01*
X104233891Y-94708891D01*
X104217918Y-94728476D01*
X104217913Y-94728481D01*
X104158319Y-94801551D01*
X104053802Y-94897722D01*
X103926424Y-94960551D01*
X103786505Y-94984948D01*
X103686684Y-94977888D01*
X103661440Y-94973527D01*
X103661426Y-94973526D01*
X103645983Y-94970858D01*
X103630321Y-94970147D01*
X103630314Y-94970146D01*
X103621726Y-94969756D01*
X103621705Y-94969756D01*
X103616078Y-94969500D01*
X103442309Y-94969500D01*
X103256298Y-94984466D01*
X103013994Y-95043982D01*
X102784323Y-95141471D01*
X102573192Y-95274427D01*
X102558167Y-95287673D01*
X102558166Y-95287674D01*
X102473791Y-95362061D01*
X102386035Y-95439428D01*
X102227666Y-95632230D01*
X102217582Y-95649555D01*
X102217582Y-95649556D01*
X102156951Y-95753732D01*
X102102160Y-95847872D01*
X102094978Y-95866582D01*
X102094975Y-95866588D01*
X102020757Y-96059932D01*
X102012745Y-96080805D01*
X102008646Y-96100426D01*
X101987455Y-96201862D01*
X101938920Y-96335342D01*
X101854746Y-96449742D01*
X101747925Y-96531091D01*
X101825776Y-96581123D01*
X101918786Y-96688462D01*
X101979147Y-96822373D01*
X102047017Y-97062219D01*
X102152462Y-97288348D01*
X102163727Y-97304923D01*
X102163727Y-97304924D01*
X102239047Y-97415753D01*
X102284133Y-97482095D01*
X102284134Y-97482097D01*
X102292706Y-97494710D01*
X102291916Y-97495247D01*
X102355096Y-97602004D01*
X102390067Y-97739662D01*
X102384838Y-97881596D01*
X102339833Y-98016307D01*
X102279464Y-98109170D01*
X102227666Y-98172230D01*
X102217582Y-98189555D01*
X102217582Y-98189556D01*
X102130328Y-98339475D01*
X102102160Y-98387872D01*
X102094978Y-98406582D01*
X102094975Y-98406588D01*
X102023284Y-98593349D01*
X102012745Y-98620805D01*
X102008646Y-98640426D01*
X101987455Y-98741862D01*
X101938920Y-98875342D01*
X101854746Y-98989742D01*
X101747925Y-99071091D01*
X101250075Y-99071091D01*
X101253715Y-99068752D01*
X101203267Y-99041743D01*
X101102011Y-98942145D01*
X101032917Y-98818054D01*
X101001582Y-98679523D01*
X101000000Y-98639819D01*
X101000000Y-96958242D01*
X101020213Y-96817657D01*
X101079214Y-96688462D01*
X101172224Y-96581123D01*
X101253715Y-96528752D01*
X101203267Y-96501743D01*
X101102011Y-96402145D01*
X101032917Y-96278054D01*
X101001582Y-96139523D01*
X101000000Y-96099819D01*
X101000000Y-75837677D01*
X101020213Y-75697092D01*
X101079214Y-75567897D01*
X101172224Y-75460558D01*
X101291708Y-75383771D01*
X101427985Y-75343756D01*
X101570015Y-75343756D01*
X101706292Y-75383771D01*
X101825776Y-75460558D01*
X101891399Y-75532062D01*
X101892153Y-75531440D01*
X102094500Y-75776907D01*
X102325254Y-75995884D01*
X102580975Y-76185108D01*
X102857849Y-76341756D01*
X103151751Y-76463494D01*
X103458298Y-76548507D01*
X103772921Y-76595528D01*
X103817330Y-76597467D01*
X103881371Y-76600263D01*
X103881380Y-76600263D01*
X103886804Y-76600500D01*
X104080799Y-76600500D01*
X104088396Y-76600035D01*
X104088407Y-76600035D01*
X104193676Y-76593596D01*
X104317524Y-76586021D01*
X104332521Y-76583242D01*
X104332525Y-76583241D01*
X104615315Y-76530829D01*
X104615319Y-76530828D01*
X104630313Y-76528049D01*
X104835057Y-76463494D01*
X104919166Y-76436975D01*
X104919170Y-76436973D01*
X104933707Y-76432390D01*
X105223181Y-76300469D01*
X105399179Y-76192617D01*
X105481418Y-76142221D01*
X105481422Y-76142218D01*
X105494420Y-76134253D01*
X105743381Y-75936221D01*
X105966352Y-75709324D01*
X106160009Y-75456945D01*
X106176321Y-75429254D01*
X106313725Y-75195987D01*
X106321466Y-75182846D01*
X106448315Y-74891114D01*
X106538665Y-74586097D01*
X106591169Y-74272343D01*
X106605045Y-73954529D01*
X106580086Y-73637393D01*
X106569783Y-73586750D01*
X106519702Y-73340592D01*
X106519700Y-73340585D01*
X106516664Y-73325662D01*
X106415724Y-73023984D01*
X106278771Y-72736857D01*
X106270580Y-72723999D01*
X106116037Y-72481415D01*
X106116033Y-72481410D01*
X106107847Y-72468560D01*
X105905500Y-72223093D01*
X105674746Y-72004116D01*
X105534208Y-71900123D01*
X105433223Y-71800253D01*
X105364464Y-71675976D01*
X105333503Y-71537362D01*
X105342848Y-71395639D01*
X105391743Y-71262290D01*
X105476226Y-71148118D01*
X105589452Y-71062373D01*
X105722250Y-71012000D01*
X105831026Y-71000000D01*
X194165057Y-71000000D01*
X194305642Y-71020213D01*
G37*
G04 #@! TD.AperFunction*
G04 #@! TA.AperFunction,Conductor*
G36*
X198641585Y-104020213D02*
G01*
X198770780Y-104079214D01*
X198878119Y-104172224D01*
X198954906Y-104291708D01*
X198994921Y-104427985D01*
X199000000Y-104499000D01*
X199000000Y-121175926D01*
X198979787Y-121316511D01*
X198920786Y-121445706D01*
X198827776Y-121553045D01*
X198708292Y-121629832D01*
X198572015Y-121669847D01*
X198416067Y-121667645D01*
X198276437Y-121643527D01*
X198276431Y-121643526D01*
X198260983Y-121640858D01*
X198245321Y-121640147D01*
X198245314Y-121640146D01*
X198236726Y-121639756D01*
X198236705Y-121639756D01*
X198231078Y-121639500D01*
X198057309Y-121639500D01*
X197871298Y-121654466D01*
X197628994Y-121713982D01*
X197610553Y-121721810D01*
X197610549Y-121721811D01*
X197551806Y-121746746D01*
X197414499Y-121783070D01*
X197272521Y-121779238D01*
X197137373Y-121735562D01*
X197021497Y-121655489D01*
X197021251Y-121655224D01*
X196799623Y-121473823D01*
X196785150Y-121464954D01*
X196785143Y-121464949D01*
X196569907Y-121333053D01*
X196569903Y-121333051D01*
X196555427Y-121324180D01*
X196539883Y-121317356D01*
X196539876Y-121317353D01*
X196308734Y-121215889D01*
X196293182Y-121209062D01*
X196153551Y-121169287D01*
X196034079Y-121135254D01*
X196034071Y-121135252D01*
X196017739Y-121130600D01*
X195986324Y-121126129D01*
X195751013Y-121092639D01*
X195751007Y-121092639D01*
X195734196Y-121090246D01*
X195717208Y-121090157D01*
X195717207Y-121090157D01*
X195602356Y-121089556D01*
X195447800Y-121088747D01*
X195430960Y-121090964D01*
X195180695Y-121123911D01*
X195180688Y-121123912D01*
X195163851Y-121126129D01*
X195018842Y-121165799D01*
X194996854Y-121171814D01*
X194865182Y-121189500D01*
X193627203Y-121189500D01*
X193486618Y-121169287D01*
X193357423Y-121110286D01*
X193251462Y-121018859D01*
X193021851Y-120756116D01*
X193013107Y-120746110D01*
X192739180Y-120492894D01*
X192439896Y-120270221D01*
X192428468Y-120263476D01*
X192428462Y-120263472D01*
X192269394Y-120169587D01*
X192118645Y-120080612D01*
X192103903Y-120073909D01*
X191791168Y-119931717D01*
X191791162Y-119931715D01*
X191779064Y-119926214D01*
X191766452Y-119922031D01*
X191766445Y-119922028D01*
X191599494Y-119866653D01*
X191424999Y-119808775D01*
X191412021Y-119805957D01*
X191412013Y-119805955D01*
X191073443Y-119732444D01*
X191073437Y-119732443D01*
X191060458Y-119729625D01*
X190689572Y-119689662D01*
X190683586Y-119689500D01*
X186189459Y-119689500D01*
X186155955Y-119688374D01*
X186117192Y-119685765D01*
X186117183Y-119685765D01*
X186103944Y-119684874D01*
X186090681Y-119685395D01*
X186090673Y-119685395D01*
X185996001Y-119689115D01*
X185976411Y-119689500D01*
X185961761Y-119689500D01*
X185896581Y-119692973D01*
X185889634Y-119693295D01*
X185861852Y-119694386D01*
X185744477Y-119698997D01*
X185744472Y-119698997D01*
X185731197Y-119699519D01*
X185718045Y-119701449D01*
X185706815Y-119702491D01*
X185695753Y-119703673D01*
X185682495Y-119704380D01*
X185525821Y-119729615D01*
X185519062Y-119730655D01*
X185375271Y-119751760D01*
X185375263Y-119751762D01*
X185362118Y-119753691D01*
X185349249Y-119757007D01*
X185338249Y-119759225D01*
X185327325Y-119761587D01*
X185314208Y-119763700D01*
X185161108Y-119805439D01*
X185154468Y-119807199D01*
X185000885Y-119846776D01*
X184988447Y-119851438D01*
X184977700Y-119854827D01*
X184967121Y-119858326D01*
X184954309Y-119861819D01*
X184941943Y-119866653D01*
X184806571Y-119919569D01*
X184800062Y-119922061D01*
X184758776Y-119937538D01*
X184651590Y-119977720D01*
X184639711Y-119983682D01*
X184629470Y-119988156D01*
X184619259Y-119992788D01*
X184606876Y-119997628D01*
X184466051Y-120070781D01*
X184460001Y-120073869D01*
X184318186Y-120145040D01*
X184307008Y-120152230D01*
X184297315Y-120157759D01*
X184287636Y-120163460D01*
X184275841Y-120169587D01*
X184264763Y-120176933D01*
X184264760Y-120176935D01*
X184143703Y-120257213D01*
X184137868Y-120261024D01*
X184015629Y-120339650D01*
X184015619Y-120339657D01*
X184004449Y-120346842D01*
X183994107Y-120355172D01*
X183985017Y-120361728D01*
X183976022Y-120368409D01*
X183964953Y-120375749D01*
X183842826Y-120476961D01*
X183837432Y-120481368D01*
X183713935Y-120580840D01*
X183709588Y-120584958D01*
X183707473Y-120587073D01*
X183697486Y-120596026D01*
X183697729Y-120596290D01*
X183687963Y-120605302D01*
X183677733Y-120613780D01*
X183668459Y-120623300D01*
X183668458Y-120623301D01*
X183565676Y-120728810D01*
X183561087Y-120733459D01*
X181576200Y-122718346D01*
X181462499Y-122803462D01*
X181329424Y-122853096D01*
X181223354Y-122864500D01*
X127386647Y-122864500D01*
X127246062Y-122844287D01*
X127116867Y-122785286D01*
X127033801Y-122718346D01*
X123855312Y-119539858D01*
X123832417Y-119515371D01*
X123806850Y-119486115D01*
X123798107Y-119476110D01*
X123718750Y-119402753D01*
X123704626Y-119389172D01*
X123694297Y-119378843D01*
X123645785Y-119335239D01*
X123640724Y-119330626D01*
X123524180Y-119222894D01*
X123513524Y-119214966D01*
X123504966Y-119207861D01*
X123496198Y-119200786D01*
X123486305Y-119191894D01*
X123357686Y-119098960D01*
X123352181Y-119094924D01*
X123235551Y-119008148D01*
X123235544Y-119008143D01*
X123224896Y-119000221D01*
X123213463Y-118993473D01*
X123204110Y-118987259D01*
X123194702Y-118981196D01*
X123183941Y-118973421D01*
X123046249Y-118894723D01*
X123040263Y-118891246D01*
X122915095Y-118817369D01*
X122915080Y-118817361D01*
X122903645Y-118810612D01*
X122891549Y-118805112D01*
X122881519Y-118799891D01*
X122871596Y-118794901D01*
X122860073Y-118788315D01*
X122714817Y-118724704D01*
X122708536Y-118721902D01*
X122564064Y-118656214D01*
X122551448Y-118652029D01*
X122541022Y-118647943D01*
X122530537Y-118644002D01*
X122518370Y-118638674D01*
X122505713Y-118634671D01*
X122505710Y-118634670D01*
X122367177Y-118590858D01*
X122360548Y-118588710D01*
X122222613Y-118542959D01*
X122222614Y-118542959D01*
X122209999Y-118538775D01*
X122197015Y-118535956D01*
X122186308Y-118533027D01*
X122175378Y-118530200D01*
X122162699Y-118526190D01*
X122149670Y-118523551D01*
X122149666Y-118523550D01*
X122079131Y-118509264D01*
X122007232Y-118494701D01*
X122000530Y-118493294D01*
X121845458Y-118459625D01*
X121832240Y-118458201D01*
X121821225Y-118456417D01*
X121810115Y-118454776D01*
X121797090Y-118452138D01*
X121771164Y-118449710D01*
X121639186Y-118437350D01*
X121632259Y-118436652D01*
X121484546Y-118420736D01*
X121484529Y-118420735D01*
X121474572Y-118419662D01*
X121468586Y-118419500D01*
X121465553Y-118419500D01*
X121452196Y-118418793D01*
X121452183Y-118419128D01*
X121438911Y-118418595D01*
X121425681Y-118417356D01*
X121265190Y-118419457D01*
X121258658Y-118419500D01*
X120605938Y-118419500D01*
X120465353Y-118399287D01*
X120336158Y-118340286D01*
X120228819Y-118247276D01*
X120152032Y-118127792D01*
X120112017Y-117991515D01*
X120112017Y-117849485D01*
X120112460Y-117846954D01*
X120113939Y-117841712D01*
X120151652Y-117560933D01*
X120155610Y-117435000D01*
X120140584Y-117222785D01*
X120150817Y-117081126D01*
X120200547Y-116948086D01*
X120285743Y-116834446D01*
X120399505Y-116749411D01*
X120532615Y-116699871D01*
X120643667Y-116691147D01*
X120643637Y-116689414D01*
X120662143Y-116689091D01*
X120680636Y-116690141D01*
X120790656Y-116680031D01*
X120799302Y-116679312D01*
X120817181Y-116677984D01*
X120891010Y-116672498D01*
X120891017Y-116672497D01*
X120909466Y-116671126D01*
X120924434Y-116667739D01*
X120939726Y-116666334D01*
X121047113Y-116640057D01*
X121055498Y-116638083D01*
X121145177Y-116617791D01*
X121145184Y-116617789D01*
X121163232Y-116613705D01*
X121177535Y-116608143D01*
X121192451Y-116604493D01*
X121294782Y-116562628D01*
X121302801Y-116559430D01*
X121388462Y-116526118D01*
X121388467Y-116526116D01*
X121405723Y-116519405D01*
X121419049Y-116511788D01*
X121433259Y-116505975D01*
X121449168Y-116496510D01*
X121449174Y-116496507D01*
X121528174Y-116449506D01*
X121535702Y-116445116D01*
X121615530Y-116399491D01*
X121615534Y-116399488D01*
X121631612Y-116390299D01*
X121643672Y-116380792D01*
X121656861Y-116372945D01*
X121742448Y-116303018D01*
X121749105Y-116297676D01*
X121835936Y-116229223D01*
X121848619Y-116215740D01*
X121848625Y-116215735D01*
X121903345Y-116157565D01*
X121913956Y-116146625D01*
X123615658Y-114444923D01*
X123729359Y-114359807D01*
X123818037Y-114321995D01*
X123871499Y-114305087D01*
X123871500Y-114305086D01*
X123888314Y-114299769D01*
X124143697Y-114177136D01*
X124379253Y-114019743D01*
X124590281Y-113830730D01*
X124750916Y-113639632D01*
X124761223Y-113627371D01*
X124761226Y-113627367D01*
X124772573Y-113613868D01*
X124922489Y-113373485D01*
X125037040Y-113114376D01*
X125113939Y-112841712D01*
X125148497Y-112584428D01*
X125149957Y-112573555D01*
X125149958Y-112573549D01*
X125151652Y-112560933D01*
X125152082Y-112547260D01*
X125155210Y-112447734D01*
X125155210Y-112447730D01*
X125155610Y-112435000D01*
X125135601Y-112152407D01*
X125131890Y-112135168D01*
X125131888Y-112135157D01*
X125114528Y-112054522D01*
X125104700Y-111912832D01*
X125135189Y-111774113D01*
X125203524Y-111649603D01*
X125304170Y-111549388D01*
X125428973Y-111481589D01*
X125567822Y-111451696D01*
X125602351Y-111450500D01*
X153499673Y-111450500D01*
X153640258Y-111470713D01*
X153769453Y-111529714D01*
X153852519Y-111596654D01*
X158095485Y-115839619D01*
X158180601Y-115953320D01*
X158188421Y-115968235D01*
X158207787Y-116006740D01*
X158370006Y-116242770D01*
X158562756Y-116454600D01*
X158575797Y-116465504D01*
X158769429Y-116627406D01*
X158769435Y-116627410D01*
X158782472Y-116638311D01*
X158796870Y-116647343D01*
X158796873Y-116647345D01*
X158891417Y-116706652D01*
X159025088Y-116790503D01*
X159286114Y-116908361D01*
X159302399Y-116913185D01*
X159302402Y-116913186D01*
X159368554Y-116932781D01*
X159560719Y-116989703D01*
X159577514Y-116992273D01*
X159661699Y-117005155D01*
X159843824Y-117033024D01*
X160130189Y-117037523D01*
X160147044Y-117035483D01*
X160147049Y-117035483D01*
X160272351Y-117020319D01*
X160414514Y-117003115D01*
X160419648Y-117001768D01*
X160555957Y-116995536D01*
X160693920Y-117029285D01*
X160816786Y-117100535D01*
X160914601Y-117203514D01*
X160979442Y-117329880D01*
X161006054Y-117469394D01*
X161006059Y-117501985D01*
X161006313Y-117509264D01*
X161005404Y-117529288D01*
X161034081Y-117777140D01*
X161102017Y-118017219D01*
X161207462Y-118243348D01*
X161218727Y-118259923D01*
X161218727Y-118259924D01*
X161276847Y-118345444D01*
X161347706Y-118449710D01*
X161519138Y-118630994D01*
X161535053Y-118643162D01*
X161650265Y-118731248D01*
X161717349Y-118782538D01*
X161937239Y-118900443D01*
X162061380Y-118943188D01*
X162154198Y-118975148D01*
X162154202Y-118975149D01*
X162173152Y-118981674D01*
X162192898Y-118985085D01*
X162192903Y-118985086D01*
X162312555Y-119005753D01*
X162419017Y-119024142D01*
X162434679Y-119024853D01*
X162434686Y-119024854D01*
X162443274Y-119025244D01*
X162443295Y-119025244D01*
X162448922Y-119025500D01*
X162622691Y-119025500D01*
X162808702Y-119010534D01*
X163051006Y-118951018D01*
X163280677Y-118853529D01*
X163491808Y-118720573D01*
X163589246Y-118634670D01*
X163663935Y-118568823D01*
X163663937Y-118568821D01*
X163678965Y-118555572D01*
X163837334Y-118362770D01*
X163850420Y-118340286D01*
X163952758Y-118164451D01*
X163952759Y-118164449D01*
X163962840Y-118147128D01*
X163970022Y-118128418D01*
X163970025Y-118128412D01*
X164045071Y-117932911D01*
X164045072Y-117932906D01*
X164052255Y-117914195D01*
X164065774Y-117849485D01*
X164099179Y-117689584D01*
X164099180Y-117689579D01*
X164103278Y-117669961D01*
X164110906Y-117501985D01*
X164113687Y-117440735D01*
X164113687Y-117440732D01*
X164114596Y-117420712D01*
X164085919Y-117172860D01*
X164034818Y-116992273D01*
X164023439Y-116952061D01*
X164023438Y-116952058D01*
X164017983Y-116932781D01*
X163951638Y-116790503D01*
X163921009Y-116724818D01*
X163921008Y-116724817D01*
X163912538Y-116706652D01*
X163889327Y-116672498D01*
X163783558Y-116516864D01*
X163783556Y-116516862D01*
X163772294Y-116500290D01*
X163773084Y-116499753D01*
X163709904Y-116392996D01*
X163674933Y-116255338D01*
X163680162Y-116113404D01*
X163725167Y-115978693D01*
X163785536Y-115885830D01*
X163837334Y-115822770D01*
X163917809Y-115684500D01*
X163952758Y-115624451D01*
X163952759Y-115624449D01*
X163962840Y-115607128D01*
X163970022Y-115588418D01*
X163970025Y-115588412D01*
X164045071Y-115392911D01*
X164045072Y-115392906D01*
X164052255Y-115374195D01*
X164103278Y-115129961D01*
X164114596Y-114880712D01*
X164085919Y-114632860D01*
X164032738Y-114444923D01*
X164023439Y-114412061D01*
X164023438Y-114412058D01*
X164017983Y-114392781D01*
X163912538Y-114166652D01*
X163819359Y-114029544D01*
X163783560Y-113976867D01*
X163783558Y-113976865D01*
X163772294Y-113960290D01*
X163600862Y-113779006D01*
X163402651Y-113627462D01*
X163182761Y-113509557D01*
X163022001Y-113454203D01*
X162965802Y-113434852D01*
X162965798Y-113434851D01*
X162946848Y-113428326D01*
X162927102Y-113424915D01*
X162927097Y-113424914D01*
X162721894Y-113389470D01*
X162700983Y-113385858D01*
X162685321Y-113385147D01*
X162685314Y-113385146D01*
X162676726Y-113384756D01*
X162676705Y-113384756D01*
X162671078Y-113384500D01*
X162497309Y-113384500D01*
X162311298Y-113399466D01*
X162068994Y-113458982D01*
X162050553Y-113466810D01*
X162050549Y-113466811D01*
X161991806Y-113491746D01*
X161854499Y-113528070D01*
X161712521Y-113524238D01*
X161577373Y-113480562D01*
X161461497Y-113400489D01*
X161461251Y-113400224D01*
X161239623Y-113218823D01*
X161225150Y-113209954D01*
X161225143Y-113209949D01*
X161014502Y-113080869D01*
X160922382Y-113008247D01*
X157195270Y-109281136D01*
X157110154Y-109167435D01*
X157060520Y-109034360D01*
X157050387Y-108892692D01*
X157063416Y-108809685D01*
X157111362Y-108613746D01*
X157111362Y-108613744D01*
X157114518Y-108600848D01*
X157131698Y-108472939D01*
X157162408Y-108244301D01*
X157162409Y-108244294D01*
X157164176Y-108231135D01*
X157167452Y-108110058D01*
X157191460Y-107970075D01*
X157253934Y-107842523D01*
X157313423Y-107770712D01*
X157527481Y-107556654D01*
X157641182Y-107471538D01*
X157774257Y-107421904D01*
X157880327Y-107410500D01*
X159305381Y-107410500D01*
X159447105Y-107431049D01*
X159560719Y-107464703D01*
X159577514Y-107467273D01*
X159661699Y-107480155D01*
X159843824Y-107508024D01*
X160130189Y-107512523D01*
X160147044Y-107510483D01*
X160147049Y-107510483D01*
X160272351Y-107495319D01*
X160414514Y-107478115D01*
X160419648Y-107476768D01*
X160555957Y-107470536D01*
X160693920Y-107504285D01*
X160816786Y-107575535D01*
X160914601Y-107678514D01*
X160979442Y-107804880D01*
X161006054Y-107944394D01*
X161006059Y-107976985D01*
X161006313Y-107984264D01*
X161005404Y-108004288D01*
X161034081Y-108252140D01*
X161102017Y-108492219D01*
X161207462Y-108718348D01*
X161218727Y-108734923D01*
X161218727Y-108734924D01*
X161325947Y-108892692D01*
X161347706Y-108924710D01*
X161519138Y-109105994D01*
X161535053Y-109118162D01*
X161650265Y-109206248D01*
X161717349Y-109257538D01*
X161735008Y-109267007D01*
X161735010Y-109267008D01*
X161827294Y-109316490D01*
X161937239Y-109375443D01*
X162061380Y-109418188D01*
X162154198Y-109450148D01*
X162154202Y-109450149D01*
X162173152Y-109456674D01*
X162192898Y-109460085D01*
X162192903Y-109460086D01*
X162312555Y-109480753D01*
X162419017Y-109499142D01*
X162434679Y-109499853D01*
X162434686Y-109499854D01*
X162443274Y-109500244D01*
X162443295Y-109500244D01*
X162448922Y-109500500D01*
X162622691Y-109500500D01*
X162808702Y-109485534D01*
X163051006Y-109426018D01*
X163280677Y-109328529D01*
X163491808Y-109195573D01*
X163506834Y-109182326D01*
X163663935Y-109043823D01*
X163663937Y-109043821D01*
X163678965Y-109030572D01*
X163837334Y-108837770D01*
X163853680Y-108809685D01*
X163952758Y-108639451D01*
X163952759Y-108639449D01*
X163962840Y-108622128D01*
X163970022Y-108603418D01*
X163970025Y-108603412D01*
X164045071Y-108407911D01*
X164045072Y-108407906D01*
X164052255Y-108389195D01*
X164082525Y-108244301D01*
X164099179Y-108164584D01*
X164099180Y-108164579D01*
X164103278Y-108144961D01*
X164111219Y-107970075D01*
X164113687Y-107915735D01*
X164113687Y-107915732D01*
X164114596Y-107895712D01*
X164085919Y-107647860D01*
X164034818Y-107467273D01*
X164023439Y-107427061D01*
X164023438Y-107427058D01*
X164017983Y-107407781D01*
X163912538Y-107181652D01*
X163772294Y-106975290D01*
X163773084Y-106974753D01*
X163709904Y-106867996D01*
X163674933Y-106730338D01*
X163680162Y-106588404D01*
X163725167Y-106453693D01*
X163785536Y-106360830D01*
X163837334Y-106297770D01*
X163962840Y-106082128D01*
X163970022Y-106063418D01*
X163970025Y-106063412D01*
X164045071Y-105867911D01*
X164045072Y-105867906D01*
X164052255Y-105849195D01*
X164103278Y-105604961D01*
X164114596Y-105355712D01*
X164085919Y-105107860D01*
X164017983Y-104867781D01*
X163944353Y-104709881D01*
X163903261Y-104573931D01*
X163902134Y-104431905D01*
X163941067Y-104295315D01*
X164016904Y-104175226D01*
X164123502Y-104081368D01*
X164252225Y-104021343D01*
X164396603Y-104000000D01*
X198501000Y-104000000D01*
X198641585Y-104020213D01*
G37*
G04 #@! TD.AperFunction*
G04 #@! TA.AperFunction,Conductor*
G36*
X195007105Y-125211049D02*
G01*
X195120719Y-125244703D01*
X195137514Y-125247273D01*
X195221699Y-125260155D01*
X195403824Y-125288024D01*
X195690189Y-125292523D01*
X195707044Y-125290483D01*
X195707049Y-125290483D01*
X195832352Y-125275319D01*
X195974514Y-125258115D01*
X195979648Y-125256768D01*
X196115957Y-125250536D01*
X196253920Y-125284285D01*
X196376786Y-125355535D01*
X196474601Y-125458514D01*
X196539442Y-125584880D01*
X196566054Y-125724394D01*
X196566059Y-125756985D01*
X196566313Y-125764264D01*
X196565404Y-125784288D01*
X196594081Y-126032140D01*
X196628622Y-126154203D01*
X196644528Y-126210413D01*
X196662017Y-126272219D01*
X196767462Y-126498348D01*
X196778727Y-126514923D01*
X196778727Y-126514924D01*
X196780941Y-126518181D01*
X196907706Y-126704710D01*
X197079138Y-126885994D01*
X197095053Y-126898162D01*
X197248729Y-127015656D01*
X197277349Y-127037538D01*
X197497239Y-127155443D01*
X197642985Y-127205627D01*
X197714198Y-127230148D01*
X197714202Y-127230149D01*
X197733152Y-127236674D01*
X197752898Y-127240085D01*
X197752903Y-127240086D01*
X197866372Y-127259685D01*
X197979017Y-127279142D01*
X197994679Y-127279853D01*
X197994686Y-127279854D01*
X198003274Y-127280244D01*
X198003295Y-127280244D01*
X198008922Y-127280500D01*
X198182691Y-127280500D01*
X198368702Y-127265534D01*
X198388167Y-127260753D01*
X198407949Y-127257549D01*
X198408295Y-127259685D01*
X198523326Y-127248371D01*
X198662865Y-127274853D01*
X198789292Y-127339576D01*
X198892362Y-127437296D01*
X198963726Y-127560095D01*
X198997604Y-127698026D01*
X199000000Y-127746871D01*
X199000000Y-134162323D01*
X198979787Y-134302908D01*
X198920786Y-134432103D01*
X198827776Y-134539442D01*
X198708292Y-134616229D01*
X198572015Y-134656244D01*
X198429985Y-134656244D01*
X198293708Y-134616229D01*
X198174224Y-134539442D01*
X198108601Y-134467938D01*
X198107847Y-134468560D01*
X197971181Y-134302771D01*
X197905500Y-134223093D01*
X197674746Y-134004116D01*
X197476386Y-133857337D01*
X197431284Y-133823963D01*
X197431282Y-133823962D01*
X197419025Y-133814892D01*
X197142151Y-133658244D01*
X196848249Y-133536506D01*
X196541702Y-133451493D01*
X196227079Y-133404472D01*
X196182670Y-133402533D01*
X196118629Y-133399737D01*
X196118620Y-133399737D01*
X196113196Y-133399500D01*
X195919201Y-133399500D01*
X195911604Y-133399965D01*
X195911593Y-133399965D01*
X195814543Y-133405901D01*
X195682476Y-133413979D01*
X195667479Y-133416758D01*
X195667475Y-133416759D01*
X195384685Y-133469171D01*
X195384681Y-133469172D01*
X195369687Y-133471951D01*
X195355138Y-133476538D01*
X195355139Y-133476538D01*
X195080834Y-133563025D01*
X195080830Y-133563027D01*
X195066293Y-133567610D01*
X194776819Y-133699531D01*
X194763809Y-133707503D01*
X194763810Y-133707503D01*
X194518582Y-133857779D01*
X194518578Y-133857782D01*
X194505580Y-133865747D01*
X194256619Y-134063779D01*
X194033648Y-134290676D01*
X194024368Y-134302770D01*
X193917041Y-134442642D01*
X193839991Y-134543055D01*
X193832255Y-134556188D01*
X193832253Y-134556191D01*
X193804780Y-134602831D01*
X193678534Y-134817154D01*
X193551685Y-135108886D01*
X193461335Y-135413903D01*
X193408831Y-135727657D01*
X193394955Y-136045471D01*
X193419914Y-136362607D01*
X193422952Y-136377539D01*
X193473041Y-136623735D01*
X193483336Y-136674338D01*
X193584276Y-136976016D01*
X193721229Y-137263143D01*
X193729417Y-137275996D01*
X193729420Y-137276001D01*
X193872124Y-137500000D01*
X193892153Y-137531440D01*
X194094500Y-137776907D01*
X194325254Y-137995884D01*
X194344593Y-138010194D01*
X194465791Y-138099876D01*
X194566777Y-138199747D01*
X194635536Y-138324024D01*
X194666497Y-138462638D01*
X194657152Y-138604361D01*
X194608257Y-138737710D01*
X194523774Y-138851882D01*
X194410548Y-138937627D01*
X194277750Y-138988000D01*
X194168974Y-139000000D01*
X105834943Y-139000000D01*
X105694358Y-138979787D01*
X105565163Y-138920786D01*
X105457824Y-138827776D01*
X105381037Y-138708292D01*
X105341022Y-138572015D01*
X105341022Y-138429985D01*
X105381037Y-138293708D01*
X105457824Y-138174224D01*
X105524309Y-138110478D01*
X105537638Y-138099876D01*
X105743381Y-137936221D01*
X105966352Y-137709324D01*
X106160009Y-137456945D01*
X106321466Y-137182846D01*
X106448315Y-136891114D01*
X106538665Y-136586097D01*
X106567590Y-136413250D01*
X106588653Y-136287378D01*
X106591169Y-136272343D01*
X106605045Y-135954529D01*
X106580086Y-135637393D01*
X106569795Y-135586812D01*
X106519702Y-135340592D01*
X106519700Y-135340585D01*
X106516664Y-135325662D01*
X106415724Y-135023984D01*
X106278771Y-134736857D01*
X106280407Y-134736076D01*
X106236770Y-134621317D01*
X106225737Y-134479716D01*
X106255044Y-134340743D01*
X106322317Y-134215655D01*
X106422107Y-134114588D01*
X106546328Y-134045728D01*
X106684918Y-134014655D01*
X106826647Y-134023886D01*
X106851852Y-134030301D01*
X106860584Y-134032253D01*
X106877490Y-134037309D01*
X106894940Y-134039933D01*
X106894942Y-134039933D01*
X106901012Y-134040846D01*
X106947102Y-134050013D01*
X106970177Y-134055745D01*
X107022331Y-134061089D01*
X107052470Y-134064177D01*
X107075791Y-134067123D01*
X107140192Y-134076805D01*
X107140198Y-134076805D01*
X107157642Y-134079428D01*
X107175280Y-134079567D01*
X107175284Y-134079567D01*
X107201125Y-134079770D01*
X107206089Y-134079916D01*
X107211790Y-134080500D01*
X107292122Y-134080500D01*
X107296041Y-134080515D01*
X107423301Y-134081515D01*
X107423308Y-134081515D01*
X107440933Y-134081653D01*
X107447810Y-134080729D01*
X107455102Y-134080500D01*
X110287940Y-134080500D01*
X110428525Y-134100713D01*
X110528331Y-134142222D01*
X110735896Y-134256332D01*
X111016738Y-134367525D01*
X111149698Y-134401663D01*
X111294107Y-134438741D01*
X111294113Y-134438742D01*
X111309302Y-134442642D01*
X111324861Y-134444608D01*
X111324863Y-134444608D01*
X111509536Y-134467938D01*
X111608973Y-134480500D01*
X111911027Y-134480500D01*
X112010464Y-134467938D01*
X112195137Y-134444608D01*
X112195139Y-134444608D01*
X112210698Y-134442642D01*
X112225887Y-134438742D01*
X112225893Y-134438741D01*
X112370302Y-134401663D01*
X112503262Y-134367525D01*
X112784104Y-134256332D01*
X112797845Y-134248778D01*
X113035052Y-134118372D01*
X113035060Y-134118367D01*
X113048795Y-134110816D01*
X113208140Y-133995046D01*
X113280476Y-133942491D01*
X113280477Y-133942490D01*
X113293162Y-133933274D01*
X113304584Y-133922548D01*
X113304590Y-133922543D01*
X113501924Y-133737233D01*
X113501925Y-133737231D01*
X113513349Y-133726504D01*
X113574643Y-133652412D01*
X113695891Y-133505849D01*
X113695893Y-133505846D01*
X113705885Y-133493768D01*
X113716820Y-133476538D01*
X113786809Y-133366252D01*
X113867733Y-133238736D01*
X113996341Y-132965430D01*
X114089681Y-132678160D01*
X114101415Y-132616651D01*
X114143341Y-132396863D01*
X114146280Y-132381457D01*
X114165246Y-132080000D01*
X114146280Y-131778543D01*
X114110499Y-131590973D01*
X114092622Y-131497255D01*
X114092620Y-131497248D01*
X114089681Y-131481840D01*
X113996341Y-131194570D01*
X113975232Y-131149710D01*
X113874408Y-130935450D01*
X113867733Y-130921264D01*
X113705885Y-130666232D01*
X113549455Y-130477140D01*
X113523340Y-130445573D01*
X113513349Y-130433496D01*
X113501924Y-130422767D01*
X113304590Y-130237457D01*
X113304584Y-130237452D01*
X113293162Y-130226726D01*
X113048795Y-130049184D01*
X112917993Y-129977275D01*
X112804538Y-129891836D01*
X112719748Y-129777892D01*
X112670494Y-129644675D01*
X112660767Y-129502979D01*
X112691355Y-129364281D01*
X112759779Y-129239819D01*
X112860496Y-129139676D01*
X112917991Y-129102726D01*
X113048795Y-129030816D01*
X113244163Y-128888874D01*
X113280476Y-128862491D01*
X113280477Y-128862490D01*
X113293162Y-128853274D01*
X113304584Y-128842548D01*
X113304590Y-128842543D01*
X113501924Y-128657233D01*
X113501925Y-128657231D01*
X113513349Y-128646504D01*
X113705885Y-128413768D01*
X113867733Y-128158736D01*
X113996341Y-127885430D01*
X114089681Y-127598160D01*
X114096943Y-127560095D01*
X114143341Y-127316863D01*
X114146280Y-127301457D01*
X114147599Y-127280500D01*
X114164261Y-127015656D01*
X114165246Y-127000000D01*
X114146280Y-126698543D01*
X114089681Y-126401840D01*
X113996341Y-126114570D01*
X113990561Y-126102287D01*
X113957819Y-125965035D01*
X113965119Y-125823192D01*
X114012085Y-125689152D01*
X114094912Y-125573773D01*
X114206890Y-125486403D01*
X114338947Y-125434120D01*
X114454737Y-125420500D01*
X119628354Y-125420500D01*
X119768939Y-125440713D01*
X119898134Y-125499714D01*
X119981200Y-125566654D01*
X121576512Y-127161967D01*
X123159694Y-128745149D01*
X123182589Y-128769636D01*
X123208149Y-128798885D01*
X123208155Y-128798892D01*
X123216893Y-128808890D01*
X123235608Y-128826190D01*
X123296237Y-128882235D01*
X123310361Y-128895816D01*
X123320702Y-128906157D01*
X123325650Y-128910605D01*
X123325657Y-128910611D01*
X123369241Y-128949785D01*
X123374276Y-128954373D01*
X123490820Y-129062106D01*
X123501476Y-129070034D01*
X123510034Y-129077139D01*
X123518802Y-129084214D01*
X123528695Y-129093106D01*
X123657314Y-129186040D01*
X123662796Y-129190059D01*
X123676775Y-129200460D01*
X123779449Y-129276852D01*
X123779456Y-129276857D01*
X123790104Y-129284779D01*
X123801537Y-129291527D01*
X123810890Y-129297741D01*
X123820298Y-129303804D01*
X123831059Y-129311579D01*
X123968751Y-129390277D01*
X123974737Y-129393754D01*
X124099905Y-129467631D01*
X124099920Y-129467639D01*
X124111355Y-129474388D01*
X124123451Y-129479888D01*
X124133481Y-129485109D01*
X124143404Y-129490099D01*
X124154927Y-129496685D01*
X124279522Y-129551248D01*
X124300167Y-129560289D01*
X124306464Y-129563098D01*
X124450936Y-129628786D01*
X124463552Y-129632971D01*
X124473978Y-129637057D01*
X124484463Y-129640998D01*
X124496630Y-129646326D01*
X124509287Y-129650329D01*
X124509290Y-129650330D01*
X124647823Y-129694142D01*
X124654452Y-129696290D01*
X124773063Y-129735631D01*
X124805001Y-129746225D01*
X124817985Y-129749044D01*
X124828692Y-129751973D01*
X124839622Y-129754800D01*
X124852301Y-129758810D01*
X124865330Y-129761449D01*
X124865334Y-129761450D01*
X124935869Y-129775736D01*
X125007768Y-129790299D01*
X125014470Y-129791706D01*
X125169542Y-129825375D01*
X125182760Y-129826799D01*
X125193775Y-129828583D01*
X125204885Y-129830224D01*
X125217910Y-129832862D01*
X125231140Y-129834101D01*
X125375814Y-129847650D01*
X125382741Y-129848348D01*
X125530454Y-129864264D01*
X125530471Y-129864265D01*
X125540428Y-129865338D01*
X125546414Y-129865500D01*
X125549447Y-129865500D01*
X125562804Y-129866207D01*
X125562817Y-129865872D01*
X125576089Y-129866405D01*
X125589319Y-129867644D01*
X125749810Y-129865543D01*
X125756341Y-129865500D01*
X182745541Y-129865500D01*
X182779045Y-129866626D01*
X182817808Y-129869235D01*
X182817817Y-129869235D01*
X182831056Y-129870126D01*
X182844319Y-129869605D01*
X182844327Y-129869605D01*
X182938999Y-129865885D01*
X182958589Y-129865500D01*
X182973239Y-129865500D01*
X183038419Y-129862027D01*
X183045366Y-129861705D01*
X183073148Y-129860614D01*
X183190523Y-129856003D01*
X183190528Y-129856003D01*
X183203803Y-129855481D01*
X183216955Y-129853551D01*
X183228185Y-129852509D01*
X183239247Y-129851327D01*
X183252505Y-129850620D01*
X183409179Y-129825385D01*
X183415938Y-129824345D01*
X183559729Y-129803240D01*
X183559737Y-129803238D01*
X183572882Y-129801309D01*
X183585751Y-129797993D01*
X183596781Y-129795769D01*
X183607684Y-129793412D01*
X183620792Y-129791300D01*
X183633608Y-129787806D01*
X183773793Y-129749588D01*
X183780525Y-129747803D01*
X183921233Y-129711544D01*
X183921246Y-129711540D01*
X183934114Y-129708224D01*
X183946570Y-129703554D01*
X183957343Y-129700157D01*
X183967871Y-129696676D01*
X183980691Y-129693181D01*
X183993049Y-129688350D01*
X183993062Y-129688346D01*
X184128486Y-129635409D01*
X184134996Y-129632917D01*
X184270975Y-129581942D01*
X184270982Y-129581939D01*
X184283410Y-129577280D01*
X184295276Y-129571325D01*
X184305486Y-129566864D01*
X184315741Y-129562212D01*
X184328124Y-129557372D01*
X184468949Y-129484219D01*
X184474999Y-129481131D01*
X184616814Y-129409960D01*
X184627992Y-129402770D01*
X184637685Y-129397241D01*
X184647364Y-129391540D01*
X184659159Y-129385413D01*
X184760565Y-129318167D01*
X184791297Y-129297787D01*
X184797132Y-129293976D01*
X184919371Y-129215350D01*
X184919381Y-129215343D01*
X184930551Y-129208158D01*
X184940893Y-129199828D01*
X184949983Y-129193272D01*
X184958978Y-129186591D01*
X184970047Y-129179251D01*
X185092175Y-129078039D01*
X185097569Y-129073631D01*
X185213264Y-128980443D01*
X185221065Y-128974160D01*
X185225412Y-128970042D01*
X185227527Y-128967927D01*
X185237514Y-128958974D01*
X185237271Y-128958710D01*
X185247037Y-128949698D01*
X185257267Y-128941220D01*
X185369325Y-128826189D01*
X185373913Y-128821541D01*
X187358800Y-126836654D01*
X187472501Y-126751538D01*
X187605576Y-126701904D01*
X187711646Y-126690500D01*
X190593239Y-126690500D01*
X190599859Y-126690147D01*
X190599869Y-126690147D01*
X190859242Y-126676327D01*
X190859248Y-126676326D01*
X190872505Y-126675620D01*
X190885612Y-126673509D01*
X190885620Y-126673508D01*
X191227674Y-126618413D01*
X191227676Y-126618413D01*
X191240792Y-126616300D01*
X191600691Y-126518181D01*
X191613067Y-126513343D01*
X191613071Y-126513342D01*
X191858885Y-126417255D01*
X191948124Y-126382372D01*
X191959908Y-126376251D01*
X191959914Y-126376248D01*
X192160177Y-126272219D01*
X192279159Y-126210413D01*
X192290222Y-126203077D01*
X192290230Y-126203072D01*
X192578970Y-126011597D01*
X192578975Y-126011593D01*
X192590047Y-126004251D01*
X192877267Y-125766220D01*
X193137566Y-125499015D01*
X193230071Y-125381251D01*
X193332804Y-125283187D01*
X193459009Y-125218035D01*
X193598458Y-125191078D01*
X193622478Y-125190500D01*
X194865381Y-125190500D01*
X195007105Y-125211049D01*
G37*
G04 #@! TD.AperFunction*
G04 #@! TA.AperFunction,Conductor*
G36*
X101706292Y-131249139D02*
G01*
X101826036Y-131327714D01*
X101829138Y-131330994D01*
X101845053Y-131343162D01*
X101962903Y-131433265D01*
X102027349Y-131482538D01*
X102247239Y-131600443D01*
X102371386Y-131643190D01*
X102464198Y-131675148D01*
X102464202Y-131675149D01*
X102483152Y-131681674D01*
X102502898Y-131685085D01*
X102502903Y-131685086D01*
X102622555Y-131705753D01*
X102729017Y-131724142D01*
X102744679Y-131724853D01*
X102744686Y-131724854D01*
X102753274Y-131725244D01*
X102753295Y-131725244D01*
X102758922Y-131725500D01*
X102932691Y-131725500D01*
X103118702Y-131710534D01*
X103361006Y-131651018D01*
X103438004Y-131618334D01*
X103575309Y-131582011D01*
X103717288Y-131585842D01*
X103852436Y-131629518D01*
X103953055Y-131694850D01*
X104172472Y-131878311D01*
X104186870Y-131887343D01*
X104186873Y-131887345D01*
X104415088Y-132030503D01*
X104413716Y-132032689D01*
X104510247Y-132104382D01*
X105022516Y-132616651D01*
X105107632Y-132730352D01*
X105157266Y-132863427D01*
X105167399Y-133005095D01*
X105137208Y-133143880D01*
X105069140Y-133268537D01*
X104968710Y-133368967D01*
X104844053Y-133437035D01*
X104705268Y-133467226D01*
X104565921Y-133457592D01*
X104556388Y-133455566D01*
X104541702Y-133451493D01*
X104227079Y-133404472D01*
X104182670Y-133402533D01*
X104118629Y-133399737D01*
X104118620Y-133399737D01*
X104113196Y-133399500D01*
X103919201Y-133399500D01*
X103911604Y-133399965D01*
X103911593Y-133399965D01*
X103814543Y-133405901D01*
X103682476Y-133413979D01*
X103667479Y-133416758D01*
X103667475Y-133416759D01*
X103384685Y-133469171D01*
X103384681Y-133469172D01*
X103369687Y-133471951D01*
X103355138Y-133476538D01*
X103355139Y-133476538D01*
X103080834Y-133563025D01*
X103080830Y-133563027D01*
X103066293Y-133567610D01*
X102776819Y-133699531D01*
X102763809Y-133707503D01*
X102763810Y-133707503D01*
X102518582Y-133857779D01*
X102518578Y-133857782D01*
X102505580Y-133865747D01*
X102256619Y-134063779D01*
X102033648Y-134290676D01*
X102024369Y-134302769D01*
X102024367Y-134302771D01*
X101894883Y-134471518D01*
X101793265Y-134570746D01*
X101667807Y-134637326D01*
X101528673Y-134665863D01*
X101387135Y-134654046D01*
X101254660Y-134602831D01*
X101141980Y-134516368D01*
X101058223Y-134401663D01*
X101010176Y-134268006D01*
X101000000Y-134167746D01*
X101000000Y-131703045D01*
X101020213Y-131562460D01*
X101079214Y-131433265D01*
X101172224Y-131325926D01*
X101291708Y-131249139D01*
X101427985Y-131209124D01*
X101570015Y-131209124D01*
X101706292Y-131249139D01*
G37*
G04 #@! TD.AperFunction*
G04 #@! TA.AperFunction,Conductor*
G36*
X104319940Y-118020213D02*
G01*
X104409098Y-118056746D01*
X104415088Y-118060503D01*
X104430572Y-118067494D01*
X104430577Y-118067497D01*
X104534403Y-118114376D01*
X104676114Y-118178361D01*
X104692399Y-118183185D01*
X104692402Y-118183186D01*
X104757653Y-118202514D01*
X104883776Y-118239874D01*
X105012829Y-118299182D01*
X105094897Y-118365478D01*
X105356074Y-118626655D01*
X105375492Y-118647206D01*
X105420591Y-118697735D01*
X105434826Y-118709574D01*
X105434827Y-118709575D01*
X105505504Y-118768356D01*
X105512153Y-118773985D01*
X105581817Y-118834012D01*
X105581829Y-118834021D01*
X105595844Y-118846097D01*
X105608824Y-118854287D01*
X105620629Y-118864105D01*
X105715108Y-118921435D01*
X105722401Y-118925948D01*
X105815886Y-118984934D01*
X105829939Y-118991118D01*
X105843061Y-118999080D01*
X105860132Y-119006239D01*
X105860135Y-119006240D01*
X105944915Y-119041791D01*
X105952915Y-119045228D01*
X106037090Y-119082266D01*
X106037095Y-119082268D01*
X106054034Y-119089721D01*
X106068845Y-119093759D01*
X106083001Y-119099695D01*
X106100951Y-119104253D01*
X106100958Y-119104256D01*
X106190040Y-119126879D01*
X106198405Y-119129081D01*
X106305053Y-119158157D01*
X106320306Y-119159962D01*
X106335177Y-119163739D01*
X106353610Y-119165595D01*
X106353615Y-119165596D01*
X106416063Y-119171884D01*
X106445059Y-119174803D01*
X106453649Y-119175744D01*
X106505500Y-119181881D01*
X106545042Y-119186561D01*
X106545046Y-119186561D01*
X106563430Y-119188737D01*
X106581933Y-119188172D01*
X106581940Y-119188172D01*
X106661758Y-119185733D01*
X106676996Y-119185500D01*
X108440907Y-119185500D01*
X108581492Y-119205713D01*
X108710687Y-119264714D01*
X108818026Y-119357724D01*
X108894813Y-119477208D01*
X108934828Y-119613485D01*
X108934828Y-119755515D01*
X108894813Y-119891792D01*
X108863852Y-119949298D01*
X108701100Y-120209251D01*
X108701091Y-120209267D01*
X108694049Y-120220515D01*
X108632571Y-120346842D01*
X108561495Y-120492894D01*
X108530814Y-120555938D01*
X108526308Y-120568419D01*
X108526307Y-120568422D01*
X108467568Y-120731132D01*
X108404147Y-120906808D01*
X108400993Y-120919699D01*
X108400992Y-120919701D01*
X108350480Y-121126129D01*
X108315482Y-121269152D01*
X108313715Y-121282308D01*
X108313714Y-121282313D01*
X108287992Y-121473823D01*
X108265824Y-121638865D01*
X108255733Y-122011762D01*
X108285326Y-122383621D01*
X108354266Y-122750229D01*
X108461773Y-123107435D01*
X108606629Y-123451195D01*
X108787195Y-123777615D01*
X109001424Y-124083000D01*
X109010155Y-124092991D01*
X109010159Y-124092996D01*
X109079324Y-124172141D01*
X109156613Y-124291300D01*
X109197201Y-124427408D01*
X109197798Y-124569437D01*
X109158357Y-124705881D01*
X109082073Y-124825686D01*
X108975126Y-124919147D01*
X108846180Y-124978691D01*
X108703583Y-124999500D01*
X106078751Y-124999500D01*
X106066994Y-124999361D01*
X105950523Y-124996616D01*
X105868344Y-125006343D01*
X105844942Y-125008555D01*
X105762407Y-125014399D01*
X105745154Y-125018114D01*
X105745151Y-125018114D01*
X105739172Y-125019401D01*
X105692795Y-125027120D01*
X105686721Y-125027839D01*
X105686711Y-125027841D01*
X105669186Y-125029915D01*
X105589190Y-125051126D01*
X105566357Y-125056607D01*
X105502701Y-125070311D01*
X105502692Y-125070314D01*
X105485453Y-125074025D01*
X105468903Y-125080131D01*
X105468895Y-125080133D01*
X105463143Y-125082255D01*
X105418323Y-125096430D01*
X105412405Y-125097999D01*
X105412399Y-125098001D01*
X105395348Y-125102522D01*
X105319162Y-125134783D01*
X105297303Y-125143437D01*
X105257788Y-125158015D01*
X105219663Y-125172080D01*
X105204138Y-125180457D01*
X105198745Y-125183367D01*
X105156356Y-125203722D01*
X105150723Y-125206107D01*
X105150720Y-125206108D01*
X105134473Y-125212988D01*
X105119358Y-125222088D01*
X105119350Y-125222092D01*
X105063590Y-125255662D01*
X105043173Y-125267308D01*
X104985872Y-125298226D01*
X104985868Y-125298228D01*
X104970340Y-125306607D01*
X104956146Y-125317091D01*
X104951222Y-125320728D01*
X104912121Y-125346854D01*
X104891764Y-125359110D01*
X104878075Y-125370255D01*
X104878073Y-125370256D01*
X104827587Y-125411357D01*
X104809031Y-125425751D01*
X104802981Y-125430220D01*
X104793977Y-125436871D01*
X104668892Y-125504140D01*
X104529918Y-125533445D01*
X104497494Y-125534500D01*
X104252184Y-125534500D01*
X104131913Y-125545234D01*
X103936530Y-125601259D01*
X103756404Y-125695427D01*
X103598891Y-125823891D01*
X103582918Y-125843476D01*
X103582913Y-125843481D01*
X103523319Y-125916551D01*
X103418802Y-126012722D01*
X103291424Y-126075551D01*
X103151505Y-126099948D01*
X103051684Y-126092888D01*
X103026440Y-126088527D01*
X103026426Y-126088526D01*
X103010983Y-126085858D01*
X102995321Y-126085147D01*
X102995314Y-126085146D01*
X102986726Y-126084756D01*
X102986705Y-126084756D01*
X102981078Y-126084500D01*
X102807309Y-126084500D01*
X102621298Y-126099466D01*
X102378994Y-126158982D01*
X102149323Y-126256471D01*
X101938192Y-126389427D01*
X101923169Y-126402671D01*
X101923159Y-126402679D01*
X101828994Y-126485697D01*
X101710173Y-126563505D01*
X101574244Y-126604685D01*
X101432219Y-126605902D01*
X101295604Y-126567057D01*
X101175467Y-126491296D01*
X101081541Y-126384757D01*
X101021435Y-126256072D01*
X101000000Y-126111391D01*
X101000000Y-118499000D01*
X101020213Y-118358415D01*
X101079214Y-118229220D01*
X101172224Y-118121881D01*
X101291708Y-118045094D01*
X101427985Y-118005079D01*
X101499000Y-118000000D01*
X104179355Y-118000000D01*
X104319940Y-118020213D01*
G37*
G04 #@! TD.AperFunction*
G04 #@! TA.AperFunction,Conductor*
G36*
X103000000Y-95598697D02*
G01*
X102942398Y-95629324D01*
X102942396Y-95629326D01*
X102920849Y-95640782D01*
X102901939Y-95656205D01*
X102901934Y-95656208D01*
X102828137Y-95716396D01*
X102761200Y-95770989D01*
X102629882Y-95929725D01*
X102531897Y-96110945D01*
X102470977Y-96307746D01*
X102449443Y-96512631D01*
X102468114Y-96717797D01*
X102526280Y-96915428D01*
X102621726Y-97097998D01*
X102750815Y-97258553D01*
X102769504Y-97274235D01*
X102769508Y-97274239D01*
X102889933Y-97375288D01*
X102889938Y-97375291D01*
X102908630Y-97390976D01*
X102908364Y-97391293D01*
X102998489Y-97474111D01*
X103000000Y-97476620D01*
X103000000Y-98097331D01*
X102979423Y-98127384D01*
X102919236Y-98178804D01*
X102920849Y-98180782D01*
X102761200Y-98310989D01*
X102629882Y-98469725D01*
X102531897Y-98650945D01*
X102470977Y-98847746D01*
X102449443Y-99052631D01*
X102468114Y-99257797D01*
X102526280Y-99455428D01*
X102621726Y-99637998D01*
X102750815Y-99798553D01*
X102769504Y-99814235D01*
X102769508Y-99814239D01*
X102865083Y-99894436D01*
X102908630Y-99930976D01*
X102988433Y-99974848D01*
X103000000Y-99981207D01*
X103000000Y-103000000D01*
X101000000Y-103000000D01*
X101000000Y-93000000D01*
X103000000Y-93000000D01*
X103000000Y-95598697D01*
G37*
G04 #@! TD.AperFunction*
G04 #@! TA.AperFunction,Conductor*
G36*
X196011490Y-70001031D02*
G01*
X196172226Y-70008462D01*
X196173300Y-70008514D01*
X196244748Y-70012023D01*
X196336897Y-70016550D01*
X196349098Y-70017300D01*
X196371258Y-70018935D01*
X196403471Y-70022366D01*
X196520865Y-70038741D01*
X196561163Y-70044363D01*
X196565440Y-70044979D01*
X196725704Y-70068752D01*
X196737755Y-70070690D01*
X196746229Y-70072160D01*
X196775162Y-70078067D01*
X196920981Y-70112363D01*
X196935801Y-70115849D01*
X196942798Y-70117548D01*
X197103655Y-70157840D01*
X197140984Y-70168753D01*
X197300760Y-70222304D01*
X197310266Y-70225598D01*
X197465473Y-70281133D01*
X197498917Y-70294479D01*
X197653522Y-70362743D01*
X197665315Y-70368135D01*
X197813837Y-70438380D01*
X197843300Y-70453531D01*
X197991278Y-70535955D01*
X198004903Y-70543830D01*
X198145592Y-70628156D01*
X198171046Y-70644481D01*
X198310904Y-70740285D01*
X198326117Y-70751132D01*
X198440946Y-70836295D01*
X198457726Y-70848740D01*
X198479256Y-70865643D01*
X198609697Y-70973960D01*
X198626020Y-70988122D01*
X198747371Y-71098108D01*
X198765109Y-71114997D01*
X198885003Y-71234891D01*
X198901892Y-71252629D01*
X199011878Y-71373980D01*
X199026040Y-71390303D01*
X199134357Y-71520744D01*
X199151260Y-71542274D01*
X199248858Y-71673869D01*
X199259715Y-71689096D01*
X199355514Y-71828946D01*
X199371841Y-71854403D01*
X199456170Y-71995097D01*
X199464045Y-72008722D01*
X199506288Y-72084561D01*
X199546467Y-72156696D01*
X199561620Y-72186163D01*
X199631865Y-72334685D01*
X199637257Y-72346478D01*
X199705521Y-72501083D01*
X199718867Y-72534527D01*
X199774402Y-72689734D01*
X199777705Y-72699267D01*
X199831246Y-72859012D01*
X199842160Y-72896345D01*
X199882452Y-73057202D01*
X199884151Y-73064199D01*
X199921933Y-73224838D01*
X199927840Y-73253771D01*
X199929278Y-73262061D01*
X199929310Y-73262246D01*
X199931248Y-73274296D01*
X199955021Y-73434560D01*
X199955637Y-73438837D01*
X199977633Y-73596517D01*
X199981065Y-73628742D01*
X199982700Y-73650902D01*
X199983452Y-73663138D01*
X199991486Y-73826700D01*
X199991538Y-73827774D01*
X199998969Y-73988510D01*
X199999500Y-74011517D01*
X199999500Y-101980564D01*
X199997097Y-102029477D01*
X199985602Y-102146181D01*
X199966519Y-102242117D01*
X199938147Y-102335649D01*
X199900712Y-102426027D01*
X199854636Y-102512229D01*
X199800294Y-102593559D01*
X199738282Y-102669120D01*
X199669120Y-102738282D01*
X199593561Y-102800292D01*
X199512229Y-102854636D01*
X199426027Y-102900712D01*
X199335649Y-102938147D01*
X199242117Y-102966519D01*
X199146181Y-102985602D01*
X199090320Y-102991104D01*
X199024395Y-102997597D01*
X198975487Y-103000000D01*
X198000000Y-103000000D01*
X198000000Y-78000000D01*
X197980785Y-77804910D01*
X197923880Y-77617317D01*
X197831470Y-77444430D01*
X197707107Y-77292893D01*
X197555570Y-77168530D01*
X197382683Y-77076120D01*
X197195090Y-77019215D01*
X197000000Y-77000000D01*
X193000000Y-77000000D01*
X193000000Y-74132200D01*
X193898747Y-74132200D01*
X193936129Y-74416149D01*
X194011702Y-74692398D01*
X194124068Y-74955835D01*
X194132791Y-74970410D01*
X194132793Y-74970414D01*
X194223555Y-75122066D01*
X194271146Y-75201585D01*
X194450215Y-75425100D01*
X194462530Y-75436787D01*
X194462536Y-75436793D01*
X194645638Y-75610550D01*
X194657962Y-75622245D01*
X194671750Y-75632152D01*
X194671754Y-75632156D01*
X194690991Y-75645979D01*
X194890543Y-75789371D01*
X194905548Y-75797316D01*
X194905550Y-75797317D01*
X195128643Y-75915439D01*
X195128648Y-75915441D01*
X195143653Y-75923386D01*
X195159601Y-75929222D01*
X195159603Y-75929223D01*
X195396653Y-76015971D01*
X195396659Y-76015973D01*
X195412610Y-76021810D01*
X195552523Y-76052316D01*
X195675836Y-76079203D01*
X195675842Y-76079204D01*
X195692436Y-76082822D01*
X195917053Y-76100500D01*
X196071992Y-76100500D01*
X196285737Y-76085928D01*
X196566186Y-76027850D01*
X196836158Y-75932248D01*
X196868725Y-75915439D01*
X197075562Y-75808683D01*
X197075566Y-75808680D01*
X197090658Y-75800891D01*
X197324976Y-75636209D01*
X197534776Y-75441251D01*
X197716177Y-75219623D01*
X197725046Y-75205150D01*
X197725051Y-75205143D01*
X197856947Y-74989907D01*
X197856949Y-74989903D01*
X197865820Y-74975427D01*
X197872644Y-74959883D01*
X197872647Y-74959876D01*
X197974111Y-74728734D01*
X197980938Y-74713182D01*
X198009004Y-74614655D01*
X198054746Y-74454079D01*
X198054748Y-74454071D01*
X198059400Y-74437739D01*
X198099754Y-74154196D01*
X198101253Y-73867800D01*
X198095842Y-73826700D01*
X198066089Y-73600695D01*
X198066088Y-73600688D01*
X198063871Y-73583851D01*
X197988298Y-73307602D01*
X197875932Y-73044165D01*
X197864207Y-73024573D01*
X197737575Y-72812987D01*
X197728854Y-72798415D01*
X197549785Y-72574900D01*
X197537470Y-72563213D01*
X197537464Y-72563207D01*
X197354362Y-72389450D01*
X197354361Y-72389450D01*
X197342038Y-72377755D01*
X197328250Y-72367848D01*
X197328246Y-72367844D01*
X197123245Y-72220537D01*
X197109457Y-72210629D01*
X197029946Y-72168530D01*
X196871357Y-72084561D01*
X196871352Y-72084559D01*
X196856347Y-72076614D01*
X196840397Y-72070777D01*
X196603347Y-71984029D01*
X196603341Y-71984027D01*
X196587390Y-71978190D01*
X196447477Y-71947684D01*
X196324164Y-71920797D01*
X196324158Y-71920796D01*
X196307564Y-71917178D01*
X196082947Y-71899500D01*
X195928008Y-71899500D01*
X195714263Y-71914072D01*
X195433814Y-71972150D01*
X195163842Y-72067752D01*
X195148748Y-72075543D01*
X195148747Y-72075543D01*
X194924438Y-72191317D01*
X194924434Y-72191320D01*
X194909342Y-72199109D01*
X194895441Y-72208879D01*
X194716438Y-72334685D01*
X194675024Y-72363791D01*
X194465224Y-72558749D01*
X194283823Y-72780377D01*
X194274954Y-72794850D01*
X194274949Y-72794857D01*
X194149238Y-73000000D01*
X194134180Y-73024573D01*
X194127356Y-73040117D01*
X194127353Y-73040124D01*
X194116785Y-73064199D01*
X194019062Y-73286818D01*
X194014410Y-73303150D01*
X193945254Y-73545921D01*
X193945252Y-73545929D01*
X193940600Y-73562261D01*
X193938206Y-73579082D01*
X193902761Y-73828135D01*
X193900246Y-73845804D01*
X193898747Y-74132200D01*
X193000000Y-74132200D01*
X193000000Y-73000000D01*
X192980785Y-72804910D01*
X192923880Y-72617317D01*
X192831470Y-72444430D01*
X192707107Y-72292893D01*
X192555570Y-72168530D01*
X192382683Y-72076120D01*
X192195090Y-72019215D01*
X192000000Y-72000000D01*
X108000000Y-72000000D01*
X107804910Y-72019215D01*
X107617317Y-72076120D01*
X107444430Y-72168530D01*
X107292893Y-72292893D01*
X107168530Y-72444430D01*
X107076120Y-72617317D01*
X107019215Y-72804910D01*
X107000000Y-73000000D01*
X107000000Y-77000000D01*
X103000000Y-77000000D01*
X102804910Y-77019215D01*
X102617317Y-77076120D01*
X102444430Y-77168530D01*
X102292893Y-77292893D01*
X102168530Y-77444430D01*
X102076120Y-77617317D01*
X102019215Y-77804910D01*
X102000000Y-78000000D01*
X102000000Y-111000000D01*
X101024513Y-111000000D01*
X100975605Y-110997597D01*
X100909680Y-110991104D01*
X100853819Y-110985602D01*
X100757883Y-110966519D01*
X100664351Y-110938147D01*
X100573973Y-110900712D01*
X100487771Y-110854636D01*
X100406439Y-110800292D01*
X100330880Y-110738282D01*
X100261718Y-110669120D01*
X100199706Y-110593559D01*
X100145364Y-110512229D01*
X100099288Y-110426027D01*
X100061853Y-110335649D01*
X100033481Y-110242117D01*
X100014398Y-110146181D01*
X100002903Y-110029477D01*
X100000500Y-109980564D01*
X100000500Y-74132200D01*
X101898747Y-74132200D01*
X101936129Y-74416149D01*
X102011702Y-74692398D01*
X102124068Y-74955835D01*
X102132791Y-74970410D01*
X102132793Y-74970414D01*
X102223555Y-75122066D01*
X102271146Y-75201585D01*
X102450215Y-75425100D01*
X102462530Y-75436787D01*
X102462536Y-75436793D01*
X102645638Y-75610550D01*
X102657962Y-75622245D01*
X102671750Y-75632152D01*
X102671754Y-75632156D01*
X102690991Y-75645979D01*
X102890543Y-75789371D01*
X102905548Y-75797316D01*
X102905550Y-75797317D01*
X103128643Y-75915439D01*
X103128648Y-75915441D01*
X103143653Y-75923386D01*
X103159601Y-75929222D01*
X103159603Y-75929223D01*
X103396653Y-76015971D01*
X103396659Y-76015973D01*
X103412610Y-76021810D01*
X103552523Y-76052316D01*
X103675836Y-76079203D01*
X103675842Y-76079204D01*
X103692436Y-76082822D01*
X103917053Y-76100500D01*
X104071992Y-76100500D01*
X104285737Y-76085928D01*
X104566186Y-76027850D01*
X104836158Y-75932248D01*
X104868725Y-75915439D01*
X105075562Y-75808683D01*
X105075566Y-75808680D01*
X105090658Y-75800891D01*
X105324976Y-75636209D01*
X105534776Y-75441251D01*
X105716177Y-75219623D01*
X105725046Y-75205150D01*
X105725051Y-75205143D01*
X105856947Y-74989907D01*
X105856949Y-74989903D01*
X105865820Y-74975427D01*
X105872644Y-74959883D01*
X105872647Y-74959876D01*
X105974111Y-74728734D01*
X105980938Y-74713182D01*
X106009004Y-74614655D01*
X106054746Y-74454079D01*
X106054748Y-74454071D01*
X106059400Y-74437739D01*
X106099754Y-74154196D01*
X106101253Y-73867800D01*
X106095842Y-73826700D01*
X106066089Y-73600695D01*
X106066088Y-73600688D01*
X106063871Y-73583851D01*
X105988298Y-73307602D01*
X105875932Y-73044165D01*
X105864207Y-73024573D01*
X105737575Y-72812987D01*
X105728854Y-72798415D01*
X105549785Y-72574900D01*
X105537470Y-72563213D01*
X105537464Y-72563207D01*
X105354362Y-72389450D01*
X105354361Y-72389450D01*
X105342038Y-72377755D01*
X105328250Y-72367848D01*
X105328246Y-72367844D01*
X105123245Y-72220537D01*
X105109457Y-72210629D01*
X105029946Y-72168530D01*
X104871357Y-72084561D01*
X104871352Y-72084559D01*
X104856347Y-72076614D01*
X104840397Y-72070777D01*
X104603347Y-71984029D01*
X104603341Y-71984027D01*
X104587390Y-71978190D01*
X104447477Y-71947684D01*
X104324164Y-71920797D01*
X104324158Y-71920796D01*
X104307564Y-71917178D01*
X104082947Y-71899500D01*
X103928008Y-71899500D01*
X103714263Y-71914072D01*
X103433814Y-71972150D01*
X103163842Y-72067752D01*
X103148748Y-72075543D01*
X103148747Y-72075543D01*
X102924438Y-72191317D01*
X102924434Y-72191320D01*
X102909342Y-72199109D01*
X102895441Y-72208879D01*
X102716438Y-72334685D01*
X102675024Y-72363791D01*
X102465224Y-72558749D01*
X102283823Y-72780377D01*
X102274954Y-72794850D01*
X102274949Y-72794857D01*
X102149238Y-73000000D01*
X102134180Y-73024573D01*
X102127356Y-73040117D01*
X102127353Y-73040124D01*
X102116785Y-73064199D01*
X102019062Y-73286818D01*
X102014410Y-73303150D01*
X101945254Y-73545921D01*
X101945252Y-73545929D01*
X101940600Y-73562261D01*
X101938206Y-73579082D01*
X101902761Y-73828135D01*
X101900246Y-73845804D01*
X101898747Y-74132200D01*
X100000500Y-74132200D01*
X100000500Y-74011517D01*
X100001031Y-73988510D01*
X100008462Y-73827774D01*
X100008514Y-73826700D01*
X100016548Y-73663138D01*
X100017300Y-73650902D01*
X100018935Y-73628742D01*
X100022367Y-73596517D01*
X100044363Y-73438837D01*
X100044979Y-73434560D01*
X100068752Y-73274296D01*
X100070690Y-73262246D01*
X100070722Y-73262061D01*
X100072160Y-73253771D01*
X100078067Y-73224838D01*
X100115849Y-73064199D01*
X100117548Y-73057202D01*
X100157840Y-72896345D01*
X100168754Y-72859012D01*
X100222295Y-72699267D01*
X100225598Y-72689734D01*
X100281133Y-72534527D01*
X100294479Y-72501083D01*
X100362743Y-72346478D01*
X100368135Y-72334685D01*
X100438380Y-72186163D01*
X100453533Y-72156696D01*
X100493712Y-72084561D01*
X100535955Y-72008722D01*
X100543830Y-71995097D01*
X100628159Y-71854403D01*
X100644486Y-71828946D01*
X100740285Y-71689096D01*
X100751142Y-71673869D01*
X100848740Y-71542274D01*
X100865643Y-71520744D01*
X100973960Y-71390303D01*
X100988122Y-71373980D01*
X101098108Y-71252629D01*
X101114997Y-71234891D01*
X101234891Y-71114997D01*
X101252629Y-71098108D01*
X101373980Y-70988122D01*
X101390303Y-70973960D01*
X101520744Y-70865643D01*
X101542274Y-70848740D01*
X101559054Y-70836295D01*
X101673883Y-70751132D01*
X101689096Y-70740285D01*
X101828954Y-70644481D01*
X101854408Y-70628156D01*
X101995097Y-70543830D01*
X102008722Y-70535955D01*
X102156700Y-70453531D01*
X102186163Y-70438380D01*
X102334685Y-70368135D01*
X102346478Y-70362743D01*
X102501083Y-70294479D01*
X102534527Y-70281133D01*
X102689734Y-70225598D01*
X102699240Y-70222304D01*
X102859016Y-70168753D01*
X102896345Y-70157840D01*
X103057202Y-70117548D01*
X103064199Y-70115849D01*
X103079019Y-70112363D01*
X103224838Y-70078067D01*
X103253771Y-70072160D01*
X103262245Y-70070690D01*
X103274296Y-70068752D01*
X103434560Y-70044979D01*
X103438837Y-70044363D01*
X103479135Y-70038741D01*
X103596529Y-70022366D01*
X103628742Y-70018935D01*
X103650902Y-70017300D01*
X103663103Y-70016550D01*
X103755252Y-70012023D01*
X103826700Y-70008514D01*
X103827774Y-70008462D01*
X103988510Y-70001031D01*
X104011517Y-70000500D01*
X195988483Y-70000500D01*
X196011490Y-70001031D01*
G37*
G04 #@! TD.AperFunction*
G04 #@! TA.AperFunction,Conductor*
G36*
X102000000Y-127038538D02*
G01*
X101994882Y-127044725D01*
X101896897Y-127225945D01*
X101835977Y-127422746D01*
X101814443Y-127627631D01*
X101833114Y-127832797D01*
X101891280Y-128030428D01*
X101986726Y-128212998D01*
X102000000Y-128229508D01*
X102000000Y-129578538D01*
X101994882Y-129584725D01*
X101896897Y-129765945D01*
X101835977Y-129962746D01*
X101814443Y-130167631D01*
X101833114Y-130372797D01*
X101891280Y-130570428D01*
X101986726Y-130752998D01*
X102000000Y-130769508D01*
X102000000Y-132000000D01*
X102019215Y-132195090D01*
X102076120Y-132382683D01*
X102168530Y-132555570D01*
X102292893Y-132707107D01*
X102444430Y-132831470D01*
X102617317Y-132923880D01*
X102804910Y-132980785D01*
X103000000Y-133000000D01*
X105000000Y-133000000D01*
X105707107Y-133707107D01*
X105858643Y-133831470D01*
X106031530Y-133923880D01*
X106219123Y-133980785D01*
X106414214Y-134000000D01*
X107000000Y-134000000D01*
X107000000Y-137000000D01*
X107019215Y-137195090D01*
X107076120Y-137382683D01*
X107168530Y-137555570D01*
X107292893Y-137707107D01*
X107444430Y-137831470D01*
X107617317Y-137923880D01*
X107804910Y-137980785D01*
X108000000Y-138000000D01*
X192000000Y-138000000D01*
X192195090Y-137980785D01*
X192382683Y-137923880D01*
X192555570Y-137831470D01*
X192707107Y-137707107D01*
X192831470Y-137555570D01*
X192923880Y-137382683D01*
X192980785Y-137195090D01*
X193000000Y-137000000D01*
X193000000Y-136132200D01*
X193898747Y-136132200D01*
X193900964Y-136149040D01*
X193927302Y-136349098D01*
X193936129Y-136416149D01*
X194011702Y-136692398D01*
X194124068Y-136955835D01*
X194132791Y-136970410D01*
X194132793Y-136970414D01*
X194150500Y-137000000D01*
X194271146Y-137201585D01*
X194450215Y-137425100D01*
X194462530Y-137436787D01*
X194462536Y-137436793D01*
X194587701Y-137555570D01*
X194657962Y-137622245D01*
X194671750Y-137632152D01*
X194671754Y-137632156D01*
X194717900Y-137665315D01*
X194890543Y-137789371D01*
X194905548Y-137797316D01*
X194905550Y-137797317D01*
X195128643Y-137915439D01*
X195128648Y-137915441D01*
X195143653Y-137923386D01*
X195159601Y-137929222D01*
X195159603Y-137929223D01*
X195396653Y-138015971D01*
X195396659Y-138015973D01*
X195412610Y-138021810D01*
X195552523Y-138052316D01*
X195675836Y-138079203D01*
X195675842Y-138079204D01*
X195692436Y-138082822D01*
X195917053Y-138100500D01*
X196071992Y-138100500D01*
X196285737Y-138085928D01*
X196566186Y-138027850D01*
X196836158Y-137932248D01*
X196868725Y-137915439D01*
X197075562Y-137808683D01*
X197075566Y-137808680D01*
X197090658Y-137800891D01*
X197224099Y-137707107D01*
X197311075Y-137645979D01*
X197311077Y-137645978D01*
X197324976Y-137636209D01*
X197534776Y-137441251D01*
X197716177Y-137219623D01*
X197725046Y-137205150D01*
X197725051Y-137205143D01*
X197856947Y-136989907D01*
X197856949Y-136989903D01*
X197865820Y-136975427D01*
X197872644Y-136959883D01*
X197872647Y-136959876D01*
X197974111Y-136728734D01*
X197980938Y-136713182D01*
X198009004Y-136614655D01*
X198054746Y-136454079D01*
X198054748Y-136454071D01*
X198059400Y-136437739D01*
X198069179Y-136369027D01*
X198097361Y-136171013D01*
X198097361Y-136171007D01*
X198099754Y-136154196D01*
X198101253Y-135867800D01*
X198063871Y-135583851D01*
X197988298Y-135307602D01*
X197875932Y-135044165D01*
X197864207Y-135024573D01*
X197737575Y-134812987D01*
X197728854Y-134798415D01*
X197549785Y-134574900D01*
X197537470Y-134563213D01*
X197537464Y-134563207D01*
X197354362Y-134389450D01*
X197354361Y-134389450D01*
X197342038Y-134377755D01*
X197328250Y-134367848D01*
X197328246Y-134367844D01*
X197123245Y-134220537D01*
X197109457Y-134210629D01*
X197072983Y-134191317D01*
X196871357Y-134084561D01*
X196871352Y-134084559D01*
X196856347Y-134076614D01*
X196840397Y-134070777D01*
X196603347Y-133984029D01*
X196603341Y-133984027D01*
X196587390Y-133978190D01*
X196447477Y-133947684D01*
X196324164Y-133920797D01*
X196324158Y-133920796D01*
X196307564Y-133917178D01*
X196082947Y-133899500D01*
X195928008Y-133899500D01*
X195714263Y-133914072D01*
X195433814Y-133972150D01*
X195163842Y-134067752D01*
X195148748Y-134075543D01*
X195148747Y-134075543D01*
X194924438Y-134191317D01*
X194924434Y-134191320D01*
X194909342Y-134199109D01*
X194675024Y-134363791D01*
X194465224Y-134558749D01*
X194283823Y-134780377D01*
X194274954Y-134794850D01*
X194274949Y-134794857D01*
X194143053Y-135010093D01*
X194134180Y-135024573D01*
X194127356Y-135040117D01*
X194127353Y-135040124D01*
X194043825Y-135230406D01*
X194019062Y-135286818D01*
X194014410Y-135303150D01*
X193945254Y-135545921D01*
X193945252Y-135545929D01*
X193940600Y-135562261D01*
X193900246Y-135845804D01*
X193898747Y-136132200D01*
X193000000Y-136132200D01*
X193000000Y-133000000D01*
X197000000Y-133000000D01*
X197195090Y-132980785D01*
X197382683Y-132923880D01*
X197555570Y-132831470D01*
X197707107Y-132707107D01*
X197831470Y-132555570D01*
X197923880Y-132382683D01*
X197980785Y-132195090D01*
X198000000Y-132000000D01*
X198000000Y-127000000D01*
X199999500Y-127000000D01*
X199999500Y-135988483D01*
X199998969Y-136011490D01*
X199991538Y-136172226D01*
X199991486Y-136173300D01*
X199983452Y-136336862D01*
X199982700Y-136349098D01*
X199981065Y-136371258D01*
X199977633Y-136403483D01*
X199955637Y-136561163D01*
X199955021Y-136565440D01*
X199931248Y-136725704D01*
X199929310Y-136737754D01*
X199927840Y-136746229D01*
X199921933Y-136775162D01*
X199887637Y-136920981D01*
X199884151Y-136935801D01*
X199882452Y-136942798D01*
X199842160Y-137103655D01*
X199831246Y-137140988D01*
X199777705Y-137300733D01*
X199774402Y-137310266D01*
X199718867Y-137465473D01*
X199705521Y-137498917D01*
X199637257Y-137653522D01*
X199631865Y-137665315D01*
X199561620Y-137813837D01*
X199546469Y-137843300D01*
X199464045Y-137991278D01*
X199456170Y-138004903D01*
X199398871Y-138100500D01*
X199371844Y-138145592D01*
X199355519Y-138171046D01*
X199259715Y-138310904D01*
X199248858Y-138326131D01*
X199151260Y-138457726D01*
X199134357Y-138479256D01*
X199026040Y-138609697D01*
X199011878Y-138626020D01*
X198901892Y-138747371D01*
X198885003Y-138765109D01*
X198765109Y-138885003D01*
X198747371Y-138901892D01*
X198626020Y-139011878D01*
X198609697Y-139026040D01*
X198479256Y-139134357D01*
X198457726Y-139151260D01*
X198326117Y-139248868D01*
X198310904Y-139259715D01*
X198171046Y-139355519D01*
X198145597Y-139371841D01*
X198004903Y-139456170D01*
X197991278Y-139464045D01*
X197843304Y-139546467D01*
X197813837Y-139561620D01*
X197665315Y-139631865D01*
X197653522Y-139637257D01*
X197498917Y-139705521D01*
X197465473Y-139718867D01*
X197310266Y-139774402D01*
X197300760Y-139777696D01*
X197140984Y-139831247D01*
X197103655Y-139842160D01*
X196942798Y-139882452D01*
X196935801Y-139884151D01*
X196775162Y-139921933D01*
X196746229Y-139927840D01*
X196737939Y-139929278D01*
X196737754Y-139929310D01*
X196725704Y-139931248D01*
X196565440Y-139955021D01*
X196561163Y-139955637D01*
X196520865Y-139961259D01*
X196403471Y-139977634D01*
X196371258Y-139981065D01*
X196349098Y-139982700D01*
X196336897Y-139983450D01*
X196244748Y-139987977D01*
X196173300Y-139991486D01*
X196172226Y-139991538D01*
X196011490Y-139998969D01*
X195988483Y-139999500D01*
X104011517Y-139999500D01*
X103988510Y-139998969D01*
X103827774Y-139991538D01*
X103826700Y-139991486D01*
X103755252Y-139987977D01*
X103663103Y-139983450D01*
X103650902Y-139982700D01*
X103628742Y-139981065D01*
X103596529Y-139977634D01*
X103479135Y-139961259D01*
X103438837Y-139955637D01*
X103434560Y-139955021D01*
X103274296Y-139931248D01*
X103262246Y-139929310D01*
X103262061Y-139929278D01*
X103253771Y-139927840D01*
X103224838Y-139921933D01*
X103064199Y-139884151D01*
X103057202Y-139882452D01*
X102896345Y-139842160D01*
X102859016Y-139831247D01*
X102699240Y-139777696D01*
X102689734Y-139774402D01*
X102534527Y-139718867D01*
X102501083Y-139705521D01*
X102346478Y-139637257D01*
X102334685Y-139631865D01*
X102186163Y-139561620D01*
X102156696Y-139546467D01*
X102008722Y-139464045D01*
X101995097Y-139456170D01*
X101854403Y-139371841D01*
X101828954Y-139355519D01*
X101689096Y-139259715D01*
X101673883Y-139248868D01*
X101542274Y-139151260D01*
X101520744Y-139134357D01*
X101390303Y-139026040D01*
X101373980Y-139011878D01*
X101252629Y-138901892D01*
X101234891Y-138885003D01*
X101114997Y-138765109D01*
X101098108Y-138747371D01*
X100988122Y-138626020D01*
X100973960Y-138609697D01*
X100865643Y-138479256D01*
X100848740Y-138457726D01*
X100751142Y-138326131D01*
X100740285Y-138310904D01*
X100644481Y-138171046D01*
X100628156Y-138145592D01*
X100601129Y-138100500D01*
X100543830Y-138004903D01*
X100535955Y-137991278D01*
X100453531Y-137843300D01*
X100438380Y-137813837D01*
X100368135Y-137665315D01*
X100362743Y-137653522D01*
X100294479Y-137498917D01*
X100281133Y-137465473D01*
X100225598Y-137310266D01*
X100222295Y-137300733D01*
X100168754Y-137140988D01*
X100157840Y-137103655D01*
X100117548Y-136942798D01*
X100115849Y-136935801D01*
X100112363Y-136920981D01*
X100078067Y-136775162D01*
X100072160Y-136746229D01*
X100070690Y-136737754D01*
X100068752Y-136725704D01*
X100044979Y-136565440D01*
X100044363Y-136561163D01*
X100022367Y-136403483D01*
X100018935Y-136371258D01*
X100017300Y-136349098D01*
X100016548Y-136336862D01*
X100008514Y-136173300D01*
X100008462Y-136172226D01*
X100006612Y-136132200D01*
X101898747Y-136132200D01*
X101900964Y-136149040D01*
X101927302Y-136349098D01*
X101936129Y-136416149D01*
X102011702Y-136692398D01*
X102124068Y-136955835D01*
X102132791Y-136970410D01*
X102132793Y-136970414D01*
X102150500Y-137000000D01*
X102271146Y-137201585D01*
X102450215Y-137425100D01*
X102462530Y-137436787D01*
X102462536Y-137436793D01*
X102587701Y-137555570D01*
X102657962Y-137622245D01*
X102671750Y-137632152D01*
X102671754Y-137632156D01*
X102717900Y-137665315D01*
X102890543Y-137789371D01*
X102905548Y-137797316D01*
X102905550Y-137797317D01*
X103128643Y-137915439D01*
X103128648Y-137915441D01*
X103143653Y-137923386D01*
X103159601Y-137929222D01*
X103159603Y-137929223D01*
X103396653Y-138015971D01*
X103396659Y-138015973D01*
X103412610Y-138021810D01*
X103552523Y-138052316D01*
X103675836Y-138079203D01*
X103675842Y-138079204D01*
X103692436Y-138082822D01*
X103917053Y-138100500D01*
X104071992Y-138100500D01*
X104285737Y-138085928D01*
X104566186Y-138027850D01*
X104836158Y-137932248D01*
X104868725Y-137915439D01*
X105075562Y-137808683D01*
X105075566Y-137808680D01*
X105090658Y-137800891D01*
X105224099Y-137707107D01*
X105311075Y-137645979D01*
X105311077Y-137645978D01*
X105324976Y-137636209D01*
X105534776Y-137441251D01*
X105716177Y-137219623D01*
X105725046Y-137205150D01*
X105725051Y-137205143D01*
X105856947Y-136989907D01*
X105856949Y-136989903D01*
X105865820Y-136975427D01*
X105872644Y-136959883D01*
X105872647Y-136959876D01*
X105974111Y-136728734D01*
X105980938Y-136713182D01*
X106009004Y-136614655D01*
X106054746Y-136454079D01*
X106054748Y-136454071D01*
X106059400Y-136437739D01*
X106069179Y-136369027D01*
X106097361Y-136171013D01*
X106097361Y-136171007D01*
X106099754Y-136154196D01*
X106101253Y-135867800D01*
X106063871Y-135583851D01*
X105988298Y-135307602D01*
X105875932Y-135044165D01*
X105864207Y-135024573D01*
X105737575Y-134812987D01*
X105728854Y-134798415D01*
X105549785Y-134574900D01*
X105537470Y-134563213D01*
X105537464Y-134563207D01*
X105354362Y-134389450D01*
X105354361Y-134389450D01*
X105342038Y-134377755D01*
X105328250Y-134367848D01*
X105328246Y-134367844D01*
X105123245Y-134220537D01*
X105109457Y-134210629D01*
X105072983Y-134191317D01*
X104871357Y-134084561D01*
X104871352Y-134084559D01*
X104856347Y-134076614D01*
X104840397Y-134070777D01*
X104603347Y-133984029D01*
X104603341Y-133984027D01*
X104587390Y-133978190D01*
X104447477Y-133947684D01*
X104324164Y-133920797D01*
X104324158Y-133920796D01*
X104307564Y-133917178D01*
X104082947Y-133899500D01*
X103928008Y-133899500D01*
X103714263Y-133914072D01*
X103433814Y-133972150D01*
X103163842Y-134067752D01*
X103148748Y-134075543D01*
X103148747Y-134075543D01*
X102924438Y-134191317D01*
X102924434Y-134191320D01*
X102909342Y-134199109D01*
X102675024Y-134363791D01*
X102465224Y-134558749D01*
X102283823Y-134780377D01*
X102274954Y-134794850D01*
X102274949Y-134794857D01*
X102143053Y-135010093D01*
X102134180Y-135024573D01*
X102127356Y-135040117D01*
X102127353Y-135040124D01*
X102043825Y-135230406D01*
X102019062Y-135286818D01*
X102014410Y-135303150D01*
X101945254Y-135545921D01*
X101945252Y-135545929D01*
X101940600Y-135562261D01*
X101900246Y-135845804D01*
X101898747Y-136132200D01*
X100006612Y-136132200D01*
X100001031Y-136011490D01*
X100000500Y-135988483D01*
X100000500Y-119019436D01*
X100002903Y-118970523D01*
X100014398Y-118853819D01*
X100033481Y-118757883D01*
X100061853Y-118664351D01*
X100099288Y-118573973D01*
X100145364Y-118487771D01*
X100199708Y-118406439D01*
X100261718Y-118330880D01*
X100330880Y-118261718D01*
X100406441Y-118199706D01*
X100487771Y-118145364D01*
X100573973Y-118099288D01*
X100664351Y-118061853D01*
X100757883Y-118033481D01*
X100853819Y-118014398D01*
X100909680Y-118008896D01*
X100975605Y-118002403D01*
X101024513Y-118000000D01*
X102000000Y-118000000D01*
X102000000Y-127038538D01*
G37*
G04 #@! TD.AperFunction*
G04 #@! TA.AperFunction,Conductor*
G36*
X199665153Y-103755334D02*
G01*
X199791194Y-103820803D01*
X199893685Y-103919130D01*
X199964322Y-104042349D01*
X199997384Y-104180477D01*
X199999500Y-104226386D01*
X199999500Y-122000000D01*
X198000000Y-122000000D01*
X198000000Y-104000000D01*
X198501000Y-104000000D01*
X198572338Y-103997452D01*
X198643353Y-103992373D01*
X198853751Y-103954413D01*
X198915575Y-103936260D01*
X198985074Y-103915853D01*
X198985090Y-103915848D01*
X198990028Y-103914398D01*
X198994923Y-103912737D01*
X198994937Y-103912733D01*
X199051643Y-103893496D01*
X199051644Y-103893496D01*
X199068519Y-103887771D01*
X199084404Y-103879705D01*
X199237659Y-103801885D01*
X199237663Y-103801882D01*
X199248929Y-103796162D01*
X199254370Y-103792665D01*
X199384345Y-103741093D01*
X199525772Y-103728026D01*
X199665153Y-103755334D01*
G37*
G04 #@! TD.AperFunction*
M02*
