M48
INCH,TZ
T1C0.0394
T2C0.0433
T3C0.0472
T4C0.0551
T5C0.0433
T6C0.1260
%
G90
G05
T1
X46516Y-44266
X46516Y-46234
X48484Y-44266
X48484Y-46234
T2
X41500Y-44750
X41500Y-45750
X41500Y-50250
X41500Y-51250
X41750Y-38000
X41750Y-39000
X63000Y-41500
X63000Y-42500
X63000Y-45250
X63000Y-46250
X73750Y-36750
X73750Y-37750
X77000Y-48500
X77000Y-49500
T3
X45500Y-30047
X45500Y-33000
X49500Y-49750
X49500Y-52703
X50000Y-36000
X50000Y-38953
X54500Y-30047
X54500Y-33000
X54500Y-42500
X54500Y-45453
X57000Y-49750
X57000Y-52703
X59000Y-36000
X59000Y-38953
X63500Y-30047
X63500Y-33000
X64500Y-49750
X64500Y-52703
X68000Y-36000
X68000Y-38953
X72000Y-49750
X72000Y-52703
X72500Y-30047
X72500Y-33000
T4
X44000Y-48000
X44000Y-50000
X44000Y-52000
X44000Y-54000
X44379Y-36255
X44379Y-38255
X44379Y-40255
X44379Y-42255
T5
X40500Y-44750
X40500Y-45750
X40500Y-50250
X40500Y-51250
X40750Y-38000
X40750Y-39000
X64000Y-41500
X64000Y-42500
X64000Y-45250
X64000Y-46250
X74750Y-36750
X74750Y-37750
X78000Y-48500
X78000Y-49500
T6
X40945Y-29134
X40945Y-53543
X77165Y-29134
X77165Y-53543
T0
M30
