G04 #@! TF.GenerationSoftware,KiCad,Pcbnew,(6.0.0)*
G04 #@! TF.CreationDate,2022-10-04T00:24:46+02:00*
G04 #@! TF.ProjectId,Input_filter,496e7075-745f-4666-996c-7465722e6b69,rev?*
G04 #@! TF.SameCoordinates,Original*
G04 #@! TF.FileFunction,Other,User*
%FSLAX46Y46*%
G04 Gerber Fmt 4.6, Leading zero omitted, Abs format (unit mm)*
G04 Created by KiCad (PCBNEW (6.0.0)) date 2022-10-04 00:24:46*
%MOMM*%
%LPD*%
G01*
G04 APERTURE LIST*
%ADD10C,0.200000*%
G04 APERTURE END LIST*
D10*
X195471071Y-98441428D02*
X195471071Y-98155714D01*
X195399642Y-98012857D01*
X195328214Y-97941428D01*
X195113928Y-97798571D01*
X194828214Y-97727142D01*
X194256785Y-97727142D01*
X194113928Y-97798571D01*
X194042500Y-97870000D01*
X193971071Y-98012857D01*
X193971071Y-98298571D01*
X194042500Y-98441428D01*
X194113928Y-98512857D01*
X194256785Y-98584285D01*
X194613928Y-98584285D01*
X194756785Y-98512857D01*
X194828214Y-98441428D01*
X194899642Y-98298571D01*
X194899642Y-98012857D01*
X194828214Y-97870000D01*
X194756785Y-97798571D01*
X194613928Y-97727142D01*
X194899642Y-97084285D02*
X194899642Y-95941428D01*
X195471071Y-94441428D02*
X195471071Y-95298571D01*
X195471071Y-94870000D02*
X193971071Y-94870000D01*
X194185357Y-95012857D01*
X194328214Y-95155714D01*
X194399642Y-95298571D01*
X195471071Y-93012857D02*
X195471071Y-93870000D01*
X195471071Y-93441428D02*
X193971071Y-93441428D01*
X194185357Y-93584285D01*
X194328214Y-93727142D01*
X194399642Y-93870000D01*
X193971071Y-92584285D02*
X195471071Y-92084285D01*
X193971071Y-91584285D01*
X193899642Y-90012857D02*
X195828214Y-91298571D01*
X195471071Y-88727142D02*
X195471071Y-89584285D01*
X195471071Y-89155714D02*
X193971071Y-89155714D01*
X194185357Y-89298571D01*
X194328214Y-89441428D01*
X194399642Y-89584285D01*
X195328214Y-88084285D02*
X195399642Y-88012857D01*
X195471071Y-88084285D01*
X195399642Y-88155714D01*
X195328214Y-88084285D01*
X195471071Y-88084285D01*
X195471071Y-86584285D02*
X195471071Y-87441428D01*
X195471071Y-87012857D02*
X193971071Y-87012857D01*
X194185357Y-87155714D01*
X194328214Y-87298571D01*
X194399642Y-87441428D01*
X195042500Y-86012857D02*
X195042500Y-85298571D01*
X195471071Y-86155714D02*
X193971071Y-85655714D01*
X195471071Y-85155714D01*
X196386071Y-98512857D02*
X197600357Y-98512857D01*
X197743214Y-98441428D01*
X197814642Y-98370000D01*
X197886071Y-98227142D01*
X197886071Y-97941428D01*
X197814642Y-97798571D01*
X197743214Y-97727142D01*
X197600357Y-97655714D01*
X196386071Y-97655714D01*
X196886071Y-96941428D02*
X197886071Y-96941428D01*
X197028928Y-96941428D02*
X196957500Y-96870000D01*
X196886071Y-96727142D01*
X196886071Y-96512857D01*
X196957500Y-96370000D01*
X197100357Y-96298571D01*
X197886071Y-96298571D01*
X197886071Y-95584285D02*
X196886071Y-95584285D01*
X197171785Y-95584285D02*
X197028928Y-95512857D01*
X196957500Y-95441428D01*
X196886071Y-95298571D01*
X196886071Y-95155714D01*
X197814642Y-94084285D02*
X197886071Y-94227142D01*
X197886071Y-94512857D01*
X197814642Y-94655714D01*
X197671785Y-94727142D01*
X197100357Y-94727142D01*
X196957500Y-94655714D01*
X196886071Y-94512857D01*
X196886071Y-94227142D01*
X196957500Y-94084285D01*
X197100357Y-94012857D01*
X197243214Y-94012857D01*
X197386071Y-94727142D01*
X196886071Y-92727142D02*
X198100357Y-92727142D01*
X198243214Y-92798571D01*
X198314642Y-92870000D01*
X198386071Y-93012857D01*
X198386071Y-93227142D01*
X198314642Y-93370000D01*
X197814642Y-92727142D02*
X197886071Y-92870000D01*
X197886071Y-93155714D01*
X197814642Y-93298571D01*
X197743214Y-93370000D01*
X197600357Y-93441428D01*
X197171785Y-93441428D01*
X197028928Y-93370000D01*
X196957500Y-93298571D01*
X196886071Y-93155714D01*
X196886071Y-92870000D01*
X196957500Y-92727142D01*
X196886071Y-91370000D02*
X197886071Y-91370000D01*
X196886071Y-92012857D02*
X197671785Y-92012857D01*
X197814642Y-91941428D01*
X197886071Y-91798571D01*
X197886071Y-91584285D01*
X197814642Y-91441428D01*
X197743214Y-91370000D01*
X197886071Y-90441428D02*
X197814642Y-90584285D01*
X197671785Y-90655714D01*
X196386071Y-90655714D01*
X197886071Y-89227142D02*
X197100357Y-89227142D01*
X196957500Y-89298571D01*
X196886071Y-89441428D01*
X196886071Y-89727142D01*
X196957500Y-89870000D01*
X197814642Y-89227142D02*
X197886071Y-89370000D01*
X197886071Y-89727142D01*
X197814642Y-89870000D01*
X197671785Y-89941428D01*
X197528928Y-89941428D01*
X197386071Y-89870000D01*
X197314642Y-89727142D01*
X197314642Y-89370000D01*
X197243214Y-89227142D01*
X196886071Y-88727142D02*
X196886071Y-88155714D01*
X196386071Y-88512857D02*
X197671785Y-88512857D01*
X197814642Y-88441428D01*
X197886071Y-88298571D01*
X197886071Y-88155714D01*
X197814642Y-87084285D02*
X197886071Y-87227142D01*
X197886071Y-87512857D01*
X197814642Y-87655714D01*
X197671785Y-87727142D01*
X197100357Y-87727142D01*
X196957500Y-87655714D01*
X196886071Y-87512857D01*
X196886071Y-87227142D01*
X196957500Y-87084285D01*
X197100357Y-87012857D01*
X197243214Y-87012857D01*
X197386071Y-87727142D01*
X197886071Y-85727142D02*
X196386071Y-85727142D01*
X197814642Y-85727142D02*
X197886071Y-85870000D01*
X197886071Y-86155714D01*
X197814642Y-86298571D01*
X197743214Y-86370000D01*
X197600357Y-86441428D01*
X197171785Y-86441428D01*
X197028928Y-86370000D01*
X196957500Y-86298571D01*
X196886071Y-86155714D01*
X196886071Y-85870000D01*
X196957500Y-85727142D01*
X167471071Y-119727142D02*
X167471071Y-120584285D01*
X167471071Y-120155714D02*
X165971071Y-120155714D01*
X166185357Y-120298571D01*
X166328214Y-120441428D01*
X166399642Y-120584285D01*
X166613928Y-118870000D02*
X166542500Y-119012857D01*
X166471071Y-119084285D01*
X166328214Y-119155714D01*
X166256785Y-119155714D01*
X166113928Y-119084285D01*
X166042500Y-119012857D01*
X165971071Y-118870000D01*
X165971071Y-118584285D01*
X166042500Y-118441428D01*
X166113928Y-118370000D01*
X166256785Y-118298571D01*
X166328214Y-118298571D01*
X166471071Y-118370000D01*
X166542500Y-118441428D01*
X166613928Y-118584285D01*
X166613928Y-118870000D01*
X166685357Y-119012857D01*
X166756785Y-119084285D01*
X166899642Y-119155714D01*
X167185357Y-119155714D01*
X167328214Y-119084285D01*
X167399642Y-119012857D01*
X167471071Y-118870000D01*
X167471071Y-118584285D01*
X167399642Y-118441428D01*
X167328214Y-118370000D01*
X167185357Y-118298571D01*
X166899642Y-118298571D01*
X166756785Y-118370000D01*
X166685357Y-118441428D01*
X166613928Y-118584285D01*
X166899642Y-117655714D02*
X166899642Y-116512857D01*
X166113928Y-115870000D02*
X166042500Y-115798571D01*
X165971071Y-115655714D01*
X165971071Y-115298571D01*
X166042500Y-115155714D01*
X166113928Y-115084285D01*
X166256785Y-115012857D01*
X166399642Y-115012857D01*
X166613928Y-115084285D01*
X167471071Y-115941428D01*
X167471071Y-115012857D01*
X166113928Y-114441428D02*
X166042500Y-114370000D01*
X165971071Y-114227142D01*
X165971071Y-113870000D01*
X166042500Y-113727142D01*
X166113928Y-113655714D01*
X166256785Y-113584285D01*
X166399642Y-113584285D01*
X166613928Y-113655714D01*
X167471071Y-114512857D01*
X167471071Y-113584285D01*
X165971071Y-113155714D02*
X167471071Y-112655714D01*
X165971071Y-112155714D01*
X165899642Y-110584285D02*
X167828214Y-111870000D01*
X165971071Y-109798571D02*
X165971071Y-109655714D01*
X166042500Y-109512857D01*
X166113928Y-109441428D01*
X166256785Y-109370000D01*
X166542500Y-109298571D01*
X166899642Y-109298571D01*
X167185357Y-109370000D01*
X167328214Y-109441428D01*
X167399642Y-109512857D01*
X167471071Y-109655714D01*
X167471071Y-109798571D01*
X167399642Y-109941428D01*
X167328214Y-110012857D01*
X167185357Y-110084285D01*
X166899642Y-110155714D01*
X166542500Y-110155714D01*
X166256785Y-110084285D01*
X166113928Y-110012857D01*
X166042500Y-109941428D01*
X165971071Y-109798571D01*
X167328214Y-108655714D02*
X167399642Y-108584285D01*
X167471071Y-108655714D01*
X167399642Y-108727142D01*
X167328214Y-108655714D01*
X167471071Y-108655714D01*
X165971071Y-107655714D02*
X165971071Y-107512857D01*
X166042500Y-107370000D01*
X166113928Y-107298571D01*
X166256785Y-107227142D01*
X166542500Y-107155714D01*
X166899642Y-107155714D01*
X167185357Y-107227142D01*
X167328214Y-107298571D01*
X167399642Y-107370000D01*
X167471071Y-107512857D01*
X167471071Y-107655714D01*
X167399642Y-107798571D01*
X167328214Y-107870000D01*
X167185357Y-107941428D01*
X166899642Y-108012857D01*
X166542500Y-108012857D01*
X166256785Y-107941428D01*
X166113928Y-107870000D01*
X166042500Y-107798571D01*
X165971071Y-107655714D01*
X165971071Y-105798571D02*
X165971071Y-106512857D01*
X166685357Y-106584285D01*
X166613928Y-106512857D01*
X166542500Y-106370000D01*
X166542500Y-106012857D01*
X166613928Y-105870000D01*
X166685357Y-105798571D01*
X166828214Y-105727142D01*
X167185357Y-105727142D01*
X167328214Y-105798571D01*
X167399642Y-105870000D01*
X167471071Y-106012857D01*
X167471071Y-106370000D01*
X167399642Y-106512857D01*
X167328214Y-106584285D01*
X167042500Y-105155714D02*
X167042500Y-104441428D01*
X167471071Y-105298571D02*
X165971071Y-104798571D01*
X167471071Y-104298571D01*
X168386071Y-120512857D02*
X169600357Y-120512857D01*
X169743214Y-120441428D01*
X169814642Y-120370000D01*
X169886071Y-120227142D01*
X169886071Y-119941428D01*
X169814642Y-119798571D01*
X169743214Y-119727142D01*
X169600357Y-119655714D01*
X168386071Y-119655714D01*
X168886071Y-118941428D02*
X169886071Y-118941428D01*
X169028928Y-118941428D02*
X168957500Y-118870000D01*
X168886071Y-118727142D01*
X168886071Y-118512857D01*
X168957500Y-118370000D01*
X169100357Y-118298571D01*
X169886071Y-118298571D01*
X169886071Y-117584285D02*
X168886071Y-117584285D01*
X169171785Y-117584285D02*
X169028928Y-117512857D01*
X168957500Y-117441428D01*
X168886071Y-117298571D01*
X168886071Y-117155714D01*
X169814642Y-116084285D02*
X169886071Y-116227142D01*
X169886071Y-116512857D01*
X169814642Y-116655714D01*
X169671785Y-116727142D01*
X169100357Y-116727142D01*
X168957500Y-116655714D01*
X168886071Y-116512857D01*
X168886071Y-116227142D01*
X168957500Y-116084285D01*
X169100357Y-116012857D01*
X169243214Y-116012857D01*
X169386071Y-116727142D01*
X168886071Y-114727142D02*
X170100357Y-114727142D01*
X170243214Y-114798571D01*
X170314642Y-114870000D01*
X170386071Y-115012857D01*
X170386071Y-115227142D01*
X170314642Y-115370000D01*
X169814642Y-114727142D02*
X169886071Y-114870000D01*
X169886071Y-115155714D01*
X169814642Y-115298571D01*
X169743214Y-115370000D01*
X169600357Y-115441428D01*
X169171785Y-115441428D01*
X169028928Y-115370000D01*
X168957500Y-115298571D01*
X168886071Y-115155714D01*
X168886071Y-114870000D01*
X168957500Y-114727142D01*
X168886071Y-113370000D02*
X169886071Y-113370000D01*
X168886071Y-114012857D02*
X169671785Y-114012857D01*
X169814642Y-113941428D01*
X169886071Y-113798571D01*
X169886071Y-113584285D01*
X169814642Y-113441428D01*
X169743214Y-113370000D01*
X169886071Y-112441428D02*
X169814642Y-112584285D01*
X169671785Y-112655714D01*
X168386071Y-112655714D01*
X169886071Y-111227142D02*
X169100357Y-111227142D01*
X168957500Y-111298571D01*
X168886071Y-111441428D01*
X168886071Y-111727142D01*
X168957500Y-111870000D01*
X169814642Y-111227142D02*
X169886071Y-111370000D01*
X169886071Y-111727142D01*
X169814642Y-111870000D01*
X169671785Y-111941428D01*
X169528928Y-111941428D01*
X169386071Y-111870000D01*
X169314642Y-111727142D01*
X169314642Y-111370000D01*
X169243214Y-111227142D01*
X168886071Y-110727142D02*
X168886071Y-110155714D01*
X168386071Y-110512857D02*
X169671785Y-110512857D01*
X169814642Y-110441428D01*
X169886071Y-110298571D01*
X169886071Y-110155714D01*
X169814642Y-109084285D02*
X169886071Y-109227142D01*
X169886071Y-109512857D01*
X169814642Y-109655714D01*
X169671785Y-109727142D01*
X169100357Y-109727142D01*
X168957500Y-109655714D01*
X168886071Y-109512857D01*
X168886071Y-109227142D01*
X168957500Y-109084285D01*
X169100357Y-109012857D01*
X169243214Y-109012857D01*
X169386071Y-109727142D01*
X169886071Y-107727142D02*
X168386071Y-107727142D01*
X169814642Y-107727142D02*
X169886071Y-107870000D01*
X169886071Y-108155714D01*
X169814642Y-108298571D01*
X169743214Y-108370000D01*
X169600357Y-108441428D01*
X169171785Y-108441428D01*
X169028928Y-108370000D01*
X168957500Y-108298571D01*
X168886071Y-108155714D01*
X168886071Y-107870000D01*
X168957500Y-107727142D01*
X195471071Y-118742142D02*
X195471071Y-119599285D01*
X195471071Y-119170714D02*
X193971071Y-119170714D01*
X194185357Y-119313571D01*
X194328214Y-119456428D01*
X194399642Y-119599285D01*
X194613928Y-117885000D02*
X194542500Y-118027857D01*
X194471071Y-118099285D01*
X194328214Y-118170714D01*
X194256785Y-118170714D01*
X194113928Y-118099285D01*
X194042500Y-118027857D01*
X193971071Y-117885000D01*
X193971071Y-117599285D01*
X194042500Y-117456428D01*
X194113928Y-117385000D01*
X194256785Y-117313571D01*
X194328214Y-117313571D01*
X194471071Y-117385000D01*
X194542500Y-117456428D01*
X194613928Y-117599285D01*
X194613928Y-117885000D01*
X194685357Y-118027857D01*
X194756785Y-118099285D01*
X194899642Y-118170714D01*
X195185357Y-118170714D01*
X195328214Y-118099285D01*
X195399642Y-118027857D01*
X195471071Y-117885000D01*
X195471071Y-117599285D01*
X195399642Y-117456428D01*
X195328214Y-117385000D01*
X195185357Y-117313571D01*
X194899642Y-117313571D01*
X194756785Y-117385000D01*
X194685357Y-117456428D01*
X194613928Y-117599285D01*
X194899642Y-116670714D02*
X194899642Y-115527857D01*
X194113928Y-114885000D02*
X194042500Y-114813571D01*
X193971071Y-114670714D01*
X193971071Y-114313571D01*
X194042500Y-114170714D01*
X194113928Y-114099285D01*
X194256785Y-114027857D01*
X194399642Y-114027857D01*
X194613928Y-114099285D01*
X195471071Y-114956428D01*
X195471071Y-114027857D01*
X194113928Y-113456428D02*
X194042500Y-113385000D01*
X193971071Y-113242142D01*
X193971071Y-112885000D01*
X194042500Y-112742142D01*
X194113928Y-112670714D01*
X194256785Y-112599285D01*
X194399642Y-112599285D01*
X194613928Y-112670714D01*
X195471071Y-113527857D01*
X195471071Y-112599285D01*
X193971071Y-112170714D02*
X195471071Y-111670714D01*
X193971071Y-111170714D01*
X193899642Y-109599285D02*
X195828214Y-110885000D01*
X193971071Y-108813571D02*
X193971071Y-108670714D01*
X194042500Y-108527857D01*
X194113928Y-108456428D01*
X194256785Y-108385000D01*
X194542500Y-108313571D01*
X194899642Y-108313571D01*
X195185357Y-108385000D01*
X195328214Y-108456428D01*
X195399642Y-108527857D01*
X195471071Y-108670714D01*
X195471071Y-108813571D01*
X195399642Y-108956428D01*
X195328214Y-109027857D01*
X195185357Y-109099285D01*
X194899642Y-109170714D01*
X194542500Y-109170714D01*
X194256785Y-109099285D01*
X194113928Y-109027857D01*
X194042500Y-108956428D01*
X193971071Y-108813571D01*
X195328214Y-107670714D02*
X195399642Y-107599285D01*
X195471071Y-107670714D01*
X195399642Y-107742142D01*
X195328214Y-107670714D01*
X195471071Y-107670714D01*
X193971071Y-106313571D02*
X193971071Y-106599285D01*
X194042500Y-106742142D01*
X194113928Y-106813571D01*
X194328214Y-106956428D01*
X194613928Y-107027857D01*
X195185357Y-107027857D01*
X195328214Y-106956428D01*
X195399642Y-106885000D01*
X195471071Y-106742142D01*
X195471071Y-106456428D01*
X195399642Y-106313571D01*
X195328214Y-106242142D01*
X195185357Y-106170714D01*
X194828214Y-106170714D01*
X194685357Y-106242142D01*
X194613928Y-106313571D01*
X194542500Y-106456428D01*
X194542500Y-106742142D01*
X194613928Y-106885000D01*
X194685357Y-106956428D01*
X194828214Y-107027857D01*
X195042500Y-105599285D02*
X195042500Y-104885000D01*
X195471071Y-105742142D02*
X193971071Y-105242142D01*
X195471071Y-104742142D01*
X196386071Y-119527857D02*
X197600357Y-119527857D01*
X197743214Y-119456428D01*
X197814642Y-119385000D01*
X197886071Y-119242142D01*
X197886071Y-118956428D01*
X197814642Y-118813571D01*
X197743214Y-118742142D01*
X197600357Y-118670714D01*
X196386071Y-118670714D01*
X196886071Y-117956428D02*
X197886071Y-117956428D01*
X197028928Y-117956428D02*
X196957500Y-117885000D01*
X196886071Y-117742142D01*
X196886071Y-117527857D01*
X196957500Y-117385000D01*
X197100357Y-117313571D01*
X197886071Y-117313571D01*
X197886071Y-116599285D02*
X196886071Y-116599285D01*
X197171785Y-116599285D02*
X197028928Y-116527857D01*
X196957500Y-116456428D01*
X196886071Y-116313571D01*
X196886071Y-116170714D01*
X197814642Y-115099285D02*
X197886071Y-115242142D01*
X197886071Y-115527857D01*
X197814642Y-115670714D01*
X197671785Y-115742142D01*
X197100357Y-115742142D01*
X196957500Y-115670714D01*
X196886071Y-115527857D01*
X196886071Y-115242142D01*
X196957500Y-115099285D01*
X197100357Y-115027857D01*
X197243214Y-115027857D01*
X197386071Y-115742142D01*
X196886071Y-113742142D02*
X198100357Y-113742142D01*
X198243214Y-113813571D01*
X198314642Y-113885000D01*
X198386071Y-114027857D01*
X198386071Y-114242142D01*
X198314642Y-114385000D01*
X197814642Y-113742142D02*
X197886071Y-113885000D01*
X197886071Y-114170714D01*
X197814642Y-114313571D01*
X197743214Y-114385000D01*
X197600357Y-114456428D01*
X197171785Y-114456428D01*
X197028928Y-114385000D01*
X196957500Y-114313571D01*
X196886071Y-114170714D01*
X196886071Y-113885000D01*
X196957500Y-113742142D01*
X196886071Y-112385000D02*
X197886071Y-112385000D01*
X196886071Y-113027857D02*
X197671785Y-113027857D01*
X197814642Y-112956428D01*
X197886071Y-112813571D01*
X197886071Y-112599285D01*
X197814642Y-112456428D01*
X197743214Y-112385000D01*
X197886071Y-111456428D02*
X197814642Y-111599285D01*
X197671785Y-111670714D01*
X196386071Y-111670714D01*
X197886071Y-110242142D02*
X197100357Y-110242142D01*
X196957500Y-110313571D01*
X196886071Y-110456428D01*
X196886071Y-110742142D01*
X196957500Y-110885000D01*
X197814642Y-110242142D02*
X197886071Y-110385000D01*
X197886071Y-110742142D01*
X197814642Y-110885000D01*
X197671785Y-110956428D01*
X197528928Y-110956428D01*
X197386071Y-110885000D01*
X197314642Y-110742142D01*
X197314642Y-110385000D01*
X197243214Y-110242142D01*
X196886071Y-109742142D02*
X196886071Y-109170714D01*
X196386071Y-109527857D02*
X197671785Y-109527857D01*
X197814642Y-109456428D01*
X197886071Y-109313571D01*
X197886071Y-109170714D01*
X197814642Y-108099285D02*
X197886071Y-108242142D01*
X197886071Y-108527857D01*
X197814642Y-108670714D01*
X197671785Y-108742142D01*
X197100357Y-108742142D01*
X196957500Y-108670714D01*
X196886071Y-108527857D01*
X196886071Y-108242142D01*
X196957500Y-108099285D01*
X197100357Y-108027857D01*
X197243214Y-108027857D01*
X197386071Y-108742142D01*
X197886071Y-106742142D02*
X196386071Y-106742142D01*
X197814642Y-106742142D02*
X197886071Y-106885000D01*
X197886071Y-107170714D01*
X197814642Y-107313571D01*
X197743214Y-107385000D01*
X197600357Y-107456428D01*
X197171785Y-107456428D01*
X197028928Y-107385000D01*
X196957500Y-107313571D01*
X196886071Y-107170714D01*
X196886071Y-106885000D01*
X196957500Y-106742142D01*
X104246071Y-93421428D02*
X104246071Y-93135714D01*
X104174642Y-92992857D01*
X104103214Y-92921428D01*
X103888928Y-92778571D01*
X103603214Y-92707142D01*
X103031785Y-92707142D01*
X102888928Y-92778571D01*
X102817500Y-92850000D01*
X102746071Y-92992857D01*
X102746071Y-93278571D01*
X102817500Y-93421428D01*
X102888928Y-93492857D01*
X103031785Y-93564285D01*
X103388928Y-93564285D01*
X103531785Y-93492857D01*
X103603214Y-93421428D01*
X103674642Y-93278571D01*
X103674642Y-92992857D01*
X103603214Y-92850000D01*
X103531785Y-92778571D01*
X103388928Y-92707142D01*
X102746071Y-92278571D02*
X104246071Y-91778571D01*
X102746071Y-91278571D01*
X103817500Y-90850000D02*
X103817500Y-90135714D01*
X104246071Y-90992857D02*
X102746071Y-90492857D01*
X104246071Y-89992857D01*
X104103214Y-88635714D02*
X104174642Y-88707142D01*
X104246071Y-88921428D01*
X104246071Y-89064285D01*
X104174642Y-89278571D01*
X104031785Y-89421428D01*
X103888928Y-89492857D01*
X103603214Y-89564285D01*
X103388928Y-89564285D01*
X103103214Y-89492857D01*
X102960357Y-89421428D01*
X102817500Y-89278571D01*
X102746071Y-89064285D01*
X102746071Y-88921428D01*
X102817500Y-88707142D01*
X102888928Y-88635714D01*
X106661071Y-92707142D02*
X106661071Y-93564285D01*
X106661071Y-93135714D02*
X105161071Y-93135714D01*
X105375357Y-93278571D01*
X105518214Y-93421428D01*
X105589642Y-93564285D01*
X106518214Y-92064285D02*
X106589642Y-91992857D01*
X106661071Y-92064285D01*
X106589642Y-92135714D01*
X106518214Y-92064285D01*
X106661071Y-92064285D01*
X105161071Y-91492857D02*
X105161071Y-90492857D01*
X106661071Y-91135714D01*
X106232500Y-89992857D02*
X106232500Y-89278571D01*
X106661071Y-90135714D02*
X105161071Y-89635714D01*
X106661071Y-89135714D01*
X103611071Y-109852142D02*
X103611071Y-110709285D01*
X103611071Y-110280714D02*
X102111071Y-110280714D01*
X102325357Y-110423571D01*
X102468214Y-110566428D01*
X102539642Y-110709285D01*
X102111071Y-108566428D02*
X102111071Y-108852142D01*
X102182500Y-108995000D01*
X102253928Y-109066428D01*
X102468214Y-109209285D01*
X102753928Y-109280714D01*
X103325357Y-109280714D01*
X103468214Y-109209285D01*
X103539642Y-109137857D01*
X103611071Y-108995000D01*
X103611071Y-108709285D01*
X103539642Y-108566428D01*
X103468214Y-108495000D01*
X103325357Y-108423571D01*
X102968214Y-108423571D01*
X102825357Y-108495000D01*
X102753928Y-108566428D01*
X102682500Y-108709285D01*
X102682500Y-108995000D01*
X102753928Y-109137857D01*
X102825357Y-109209285D01*
X102968214Y-109280714D01*
X102111071Y-107995000D02*
X103611071Y-107495000D01*
X102111071Y-106995000D01*
X103182500Y-106566428D02*
X103182500Y-105852142D01*
X103611071Y-106709285D02*
X102111071Y-106209285D01*
X103611071Y-105709285D01*
X103468214Y-104352142D02*
X103539642Y-104423571D01*
X103611071Y-104637857D01*
X103611071Y-104780714D01*
X103539642Y-104995000D01*
X103396785Y-105137857D01*
X103253928Y-105209285D01*
X102968214Y-105280714D01*
X102753928Y-105280714D01*
X102468214Y-105209285D01*
X102325357Y-105137857D01*
X102182500Y-104995000D01*
X102111071Y-104780714D01*
X102111071Y-104637857D01*
X102182500Y-104423571D01*
X102253928Y-104352142D01*
X104526071Y-110352142D02*
X104526071Y-110209285D01*
X104597500Y-110066428D01*
X104668928Y-109995000D01*
X104811785Y-109923571D01*
X105097500Y-109852142D01*
X105454642Y-109852142D01*
X105740357Y-109923571D01*
X105883214Y-109995000D01*
X105954642Y-110066428D01*
X106026071Y-110209285D01*
X106026071Y-110352142D01*
X105954642Y-110495000D01*
X105883214Y-110566428D01*
X105740357Y-110637857D01*
X105454642Y-110709285D01*
X105097500Y-110709285D01*
X104811785Y-110637857D01*
X104668928Y-110566428D01*
X104597500Y-110495000D01*
X104526071Y-110352142D01*
X105883214Y-109209285D02*
X105954642Y-109137857D01*
X106026071Y-109209285D01*
X105954642Y-109280714D01*
X105883214Y-109209285D01*
X106026071Y-109209285D01*
X104526071Y-108209285D02*
X104526071Y-108066428D01*
X104597500Y-107923571D01*
X104668928Y-107852142D01*
X104811785Y-107780714D01*
X105097500Y-107709285D01*
X105454642Y-107709285D01*
X105740357Y-107780714D01*
X105883214Y-107852142D01*
X105954642Y-107923571D01*
X106026071Y-108066428D01*
X106026071Y-108209285D01*
X105954642Y-108352142D01*
X105883214Y-108423571D01*
X105740357Y-108495000D01*
X105454642Y-108566428D01*
X105097500Y-108566428D01*
X104811785Y-108495000D01*
X104668928Y-108423571D01*
X104597500Y-108352142D01*
X104526071Y-108209285D01*
X105168928Y-106852142D02*
X105097500Y-106995000D01*
X105026071Y-107066428D01*
X104883214Y-107137857D01*
X104811785Y-107137857D01*
X104668928Y-107066428D01*
X104597500Y-106995000D01*
X104526071Y-106852142D01*
X104526071Y-106566428D01*
X104597500Y-106423571D01*
X104668928Y-106352142D01*
X104811785Y-106280714D01*
X104883214Y-106280714D01*
X105026071Y-106352142D01*
X105097500Y-106423571D01*
X105168928Y-106566428D01*
X105168928Y-106852142D01*
X105240357Y-106995000D01*
X105311785Y-107066428D01*
X105454642Y-107137857D01*
X105740357Y-107137857D01*
X105883214Y-107066428D01*
X105954642Y-106995000D01*
X106026071Y-106852142D01*
X106026071Y-106566428D01*
X105954642Y-106423571D01*
X105883214Y-106352142D01*
X105740357Y-106280714D01*
X105454642Y-106280714D01*
X105311785Y-106352142D01*
X105240357Y-106423571D01*
X105168928Y-106566428D01*
X105597500Y-105709285D02*
X105597500Y-104995000D01*
X106026071Y-105852142D02*
X104526071Y-105352142D01*
X106026071Y-104852142D01*
X103611071Y-124457142D02*
X103611071Y-125314285D01*
X103611071Y-124885714D02*
X102111071Y-124885714D01*
X102325357Y-125028571D01*
X102468214Y-125171428D01*
X102539642Y-125314285D01*
X102111071Y-123171428D02*
X102111071Y-123457142D01*
X102182500Y-123600000D01*
X102253928Y-123671428D01*
X102468214Y-123814285D01*
X102753928Y-123885714D01*
X103325357Y-123885714D01*
X103468214Y-123814285D01*
X103539642Y-123742857D01*
X103611071Y-123600000D01*
X103611071Y-123314285D01*
X103539642Y-123171428D01*
X103468214Y-123100000D01*
X103325357Y-123028571D01*
X102968214Y-123028571D01*
X102825357Y-123100000D01*
X102753928Y-123171428D01*
X102682500Y-123314285D01*
X102682500Y-123600000D01*
X102753928Y-123742857D01*
X102825357Y-123814285D01*
X102968214Y-123885714D01*
X102111071Y-122600000D02*
X103611071Y-122100000D01*
X102111071Y-121600000D01*
X103182500Y-121171428D02*
X103182500Y-120457142D01*
X103611071Y-121314285D02*
X102111071Y-120814285D01*
X103611071Y-120314285D01*
X103468214Y-118957142D02*
X103539642Y-119028571D01*
X103611071Y-119242857D01*
X103611071Y-119385714D01*
X103539642Y-119600000D01*
X103396785Y-119742857D01*
X103253928Y-119814285D01*
X102968214Y-119885714D01*
X102753928Y-119885714D01*
X102468214Y-119814285D01*
X102325357Y-119742857D01*
X102182500Y-119600000D01*
X102111071Y-119385714D01*
X102111071Y-119242857D01*
X102182500Y-119028571D01*
X102253928Y-118957142D01*
X106026071Y-124457142D02*
X106026071Y-125314285D01*
X106026071Y-124885714D02*
X104526071Y-124885714D01*
X104740357Y-125028571D01*
X104883214Y-125171428D01*
X104954642Y-125314285D01*
X105883214Y-123814285D02*
X105954642Y-123742857D01*
X106026071Y-123814285D01*
X105954642Y-123885714D01*
X105883214Y-123814285D01*
X106026071Y-123814285D01*
X106026071Y-122314285D02*
X106026071Y-123171428D01*
X106026071Y-122742857D02*
X104526071Y-122742857D01*
X104740357Y-122885714D01*
X104883214Y-123028571D01*
X104954642Y-123171428D01*
X105168928Y-121457142D02*
X105097500Y-121600000D01*
X105026071Y-121671428D01*
X104883214Y-121742857D01*
X104811785Y-121742857D01*
X104668928Y-121671428D01*
X104597500Y-121600000D01*
X104526071Y-121457142D01*
X104526071Y-121171428D01*
X104597500Y-121028571D01*
X104668928Y-120957142D01*
X104811785Y-120885714D01*
X104883214Y-120885714D01*
X105026071Y-120957142D01*
X105097500Y-121028571D01*
X105168928Y-121171428D01*
X105168928Y-121457142D01*
X105240357Y-121600000D01*
X105311785Y-121671428D01*
X105454642Y-121742857D01*
X105740357Y-121742857D01*
X105883214Y-121671428D01*
X105954642Y-121600000D01*
X106026071Y-121457142D01*
X106026071Y-121171428D01*
X105954642Y-121028571D01*
X105883214Y-120957142D01*
X105740357Y-120885714D01*
X105454642Y-120885714D01*
X105311785Y-120957142D01*
X105240357Y-121028571D01*
X105168928Y-121171428D01*
X105597500Y-120314285D02*
X105597500Y-119600000D01*
X106026071Y-120457142D02*
X104526071Y-119957142D01*
X106026071Y-119457142D01*
M02*
